<?xml version="1.0" encoding="utf-8"?>
<!-- Generator: Adobe Illustrator 23.0.1, SVG Export Plug-In . SVG Version: 6.00 Build 0)  -->
<svg version="1.1" id="Layer_1" xmlns="http://www.w3.org/2000/svg" xmlns:xlink="http://www.w3.org/1999/xlink" x="0px" y="0px"
	 viewBox="0 0 465.5 372.8" enable-background="new 0 0 465.5 372.8" xml:space="preserve">
<g>
	<g>
		<g>
			<path fill="#543A17" d="M93.8,274.5c0,0.4,0,0.8,0.2,1.2c6.2,15.7,18.1,18.5,32,20.3c2.6,0.4,5.4,0.7,8.1,1
				c-3.4,2.7-16.1,10.5-20.9,15.6c-2.3,2.4,3.5,11.9,9.2,15.9c2.6,1.8,5.2,2.5,7.1,0.9c19.4-17.2,55.7-32.1,80.6-33.8
				c22.4-1.5,79,1.5,83.2-30.6c1.7-12.7-6.8-26.8-9.8-40.1c-0.4-1.8-0.7-3.7-0.9-5.5c-2.3-24.2,20.2-23.4,38.1-24.2
				c10.8-0.5,21.9,0.2,32.8-0.6c5.3-0.4,10.6-1,15.8-2.3c12.6-3.1,21.3-12.8,29.5-22c13.6-15.4,22.4-10,36.5-10.9
				c6.5-0.4,13.3-0.8,20.9-6.1c2.4-1.6,3.1-3.2,3.1-4.3c0-0.7-0.3-1.2-0.6-1.4c-0.7-0.5-2.4-0.4-4.3,0c-3,0.7-6.8,2-8.8,2.3
				c-15.8,2.8-33.9-5.5-48.1,4.9c-7.8,5.8-12.6,15.4-20.7,20.7c-11.3,7.3-29,3.7-41.8,3.1c-11.9-0.6-24-1.2-35.9,0.2
				c-24.1,3-39,17-36.6,42.4c1.3,13.2,9.9,25.1,10.3,38.1c0.5,18.4-58.9,14.9-70.2,15.5c-10.6,0.6-21.1,1.6-31.3,4.6
				c-9,2.6-17.3,9-26.6,10c-5.7,0.6-12.9-0.8-18.9-0.7c-6.1,0-12.3-1-17.4-4.4c-2.9-2-9.4-13.5-12.6-12.2
				C94.5,272.6,93.9,273.5,93.8,274.5z M132.2,325.6c0.4-0.5,0.7-1,0.9-1.6C133,324.6,132.6,325.3,132.2,325.6z"/>
			<path opacity="0.5" fill="#71512A" enable-background="new    " d="M352.6,192.5l0.8,2.3c5.3-0.4,10.6-1,15.8-2.3
				c12.6-3.1,21.3-12.8,29.5-22c13.6-15.4,22.4-10,36.5-10.9c6.5-0.4,13.3-0.8,20.9-6.1c2.4-1.6,3.1-3.2,3.1-4.3
				c-5.6,3.5-14.9,7.5-27.9,7.4c-23.3-0.1-25.1,0.5-38.1,13.9C380.2,183.9,373.2,186,352.6,192.5z"/>
			<path opacity="0.5" fill="#543A17" enable-background="new    " d="M272.6,259.4c-0.4-12.9-9-24.9-10.3-38.1
				c-0.9-8.9,0.5-16.4,3.6-22.5c6.4,1.9,12.9,4.1,19.2,6.8c-2.1,3.3-3.1,7.8-2.5,13.9c1.4,14.8,12.6,31.1,10.7,45.5
				c-2.9,22-30.1,27.5-54.3,29.3c-23.3,1.1-26.7-16.5-53.2-16.7c-0.5-0.3-1-0.7-1.5-1c6-0.9,12-1.4,18.1-1.8
				C213.7,274.3,273.1,277.8,272.6,259.4z"/>
			<path opacity="0.5" fill="#71512A" enable-background="new    " d="M121.1,322.9c0,0,0.5,2.3,1.3,5.7c2.6,1.8,5.2,2.5,7.1,0.9
				c19.4-17.2,55.7-32.1,80.6-33.8c22.4-1.5,79,1.5,83.2-30.6c1.7-12.7-6.8-26.8-9.8-40.1c0,0-0.1,0.1-0.1,0.1
				c-7.9,15.3,12.8,30.9-1.5,48.9c-14.3,18-78.9,14.2-101.3,18C158.2,295.8,121.1,322.9,121.1,322.9z"/>
			<path fill="#71512A" d="M113.2,312.7c-3.5,3.7-2.6,10.3,2.1,14.8c4.7,4.5,11.3,5.1,14.9,1.4c3.5-3.7,2.6-10.3-2.1-14.8
				C123.3,309.6,116.7,309,113.2,312.7z"/>
		</g>
		<g>
			<path fill="#484850" d="M270.6,247.4c0,0-18.7-19.2-20.9-22.6c-2.2-3.4-4.6-9.9-4.6-9.9c2.9,2.6,5.3,0.9,7.5-2.1
				c0,0,0.7,4.7,2.4,8.7c2,4.9,22.9,23,22.9,23C283,249,273.1,253.6,270.6,247.4z"/>
			<path fill="#32323B" d="M245.1,214.8c2.9,2.6,5.3,0.9,7.5-2.1c0,0,0.7,4.7,2.4,8.7c0.6,1.5,3.1,4.3,6.2,7.5
				c-1.2,1.6-2.6,2.9-4.1,4.1c-3.5-3.8-6.5-7.1-7.3-8.4C247.6,221.3,245.1,214.8,245.1,214.8z"/>
			<path fill="#484850" d="M266.7,249.6c0-0.9,1.1-2.7,3.4-4c0.5-0.3,2.4-4.3,7.8-3.8c4.2,0.2,11.1-0.2,14.2,1.5
				c1.5,0.8,4.5,8.7,4.5,8.7c2.3,2.9-1.5,4.9-3,3c0,0-2.5-6-3.7-6.6c-1.2-0.6-6.4-0.7-6.4-0.7s5.9,2.1,7.4,3.8
				c1.7,1.9,4.2,6.4,4.2,6.4c2.1,3.6-1.3,5.6-3,3.6l-4.8-6.8l-5.4-3.4c-3.6-2.2-5.9-1.7-9.8-0.2l0,3l0.5,6.5
				C272.5,260.7,266.4,258.2,266.7,249.6z"/>
			<path fill="#787885" d="M297,254.4c-0.5-1-3.6-0.2-3,0.8c0,0,1.4,3.7,2.3,3.9C297.1,259.2,297.3,256.3,297,254.4z"/>
			<path fill="#787885" d="M294.9,259.1c-0.8-0.9-3.5,0.6-2.8,1.5c0,0,2.2,3.3,3.1,3.2C296.2,263.7,295.6,260.8,294.9,259.1z"/>
		</g>
		<g>
			<path fill="#39393D" d="M180.8,179.7c0,0-98.5,42.8-109.3,33.9c-10.8-8.9,72.1-77.9,72.1-77.9L180.8,179.7z"/>
			<path fill="#3A6766" d="M93.2,194.9c0,0,32.8-66,107.8-93.7c0,0,62.3,2.2,33.9,42.3C210.6,177.8,94.5,209.6,93.2,194.9z"/>
			<path fill="#39716E" d="M214.5,102.9c20,7.8,17.3,28.1,10.5,38.2c-16,23.5-98.2,55.5-131.3,55.1c6,8.2,65.2-5.8,106.2-26.7
				c-2.7,3.1-2.5,4.5,3.4,2.1c10.4-4.1,17-11.1,21.1-17c-3.1,6.4-3.7,9.8,2.4,4.4c16.4-14.5,15.5-34.6,15.5-34.6l0,0
				C242,111,226.4,105.3,214.5,102.9z"/>
			<path opacity="0.56" fill="#E3E2DE" enable-background="new    " d="M156.7,124.5c0,0,8,7.3,18.2,7.4
				c11.9,0.1,23.5-0.2,20.7,16.5s-4.5,15.4,2.4,22.1l-12.8,5.9c0,0-7.1-1.9-5.3-13.5c1.8-11.5,10.9-16.3,1.9-20.9
				c-8.9-4.6-20.9,2.9-29.6-14.3L156.7,124.5z"/>
			<path opacity="0.5" fill="#39716E" enable-background="new    " d="M100,191.5c0,0,68.9-19.1,111.3-48.8
				C211.3,142.7,185.4,173.5,100,191.5z"/>
		</g>
		<path fill="#3A6766" d="M137,218.9L4.9,270.6c0,0,5-24.6,27.5-31.7L134.1,208L137,218.9z"/>
		<path fill="#2A81A4" d="M142.4,220.6L35,274.5c0,0-15-11.4,5.6-19.8l93.4-37.9L142.4,220.6z"/>
		<path fill="#BAA554" d="M124.3,228.6c0,0,32.2,20.9,102.8,6.1c38-12.6,71.4-60.8,56.1-102.8l-63.5,12.7L124.3,228.6z"/>
		<path fill="#AD9549" d="M250,169.4c3.8-11.2,2.2-21.2-0.9-30.7l-29.4,5.9L136.2,218"/>
		<path fill="#DBB446" d="M283.2,131.8l-30.5,6.1c0,22.6,14.2,28.5,16.9,46.3C290.4,170.4,289.2,148.4,283.2,131.8z"/>
		<path fill="#899A9C" d="M104.3,203.1c-1.8,5.4-2.6,8.9-2.6,8.9c14.6,5.4,27.4-15.9,35.6-34.7C123.8,182.3,112.4,191.7,104.3,203.1
			z"/>
		<path fill="#A7AA82" d="M217.7,86.7c0,0-54.8,38.9-84.2,82c-8.9,13.1-6.4,19.3,6.7,10.4c33.4-22.5,77-52.7,117.1-31.1
			C257.4,147.9,250.4,96.5,217.7,86.7z"/>
		<path fill="#937D33" d="M107.8,220.6c0,0,47.9-72.5,128.9-79.9c0,0,32.3,18.2,15.5,44.7C218.4,224.7,107.1,237.5,107.8,220.6z"/>
		<path fill="#937D33" d="M284.4,117.9c0.9,17.6-5.6,24.4-22.9,24.3c-21.3-0.1-57.7-10.4-57.9-32.5c-0.2-21.5,24.6-32.5,45.9-32.5
			C275.2,77.3,283.3,94.9,284.4,117.9z"/>
		<path fill="#E3E2DE" d="M286.6,129.5c-3.9,5.9-10.9,8.4-21.7,8.4c-5.1,0-11-0.6-17.1-1.8c-22.1-4.2-46.8-16.1-44.4-36.1
			C206.3,76.2,228,62,251.6,62c28.4,0,37.4,20.5,38.7,47.4C290.7,118.4,289.6,124.9,286.6,129.5z"/>
		<path opacity="0.5" fill="#2B3435" enable-background="new    " d="M264.9,137.8c-5.1,0-11-0.6-17.1-1.8c-0.1-0.1-0.2-0.2-0.2-0.2
			c15.7,0.8,29.9-0.5,33.3-17.9h6.1C287,117.9,287,139.6,264.9,137.8z"/>
		<path fill="#2A81A4" d="M263.7,95.1c-8.4-6.6-22.3,4.3-34.7-2.8c-0.1,0-0.1-0.1-0.1-0.1c-7-4.4-7.6-14.3-1.7-20
			c5-4.8,11.6-8,21.4-10c-22.4,1.2-42.4,15.2-45.1,37.8c-2,16.4,14.2,27.3,32.3,33.1c5.9,1.4-12.1-7.7-18.5-23.6
			c-2.5-6.1,3.7-12.3,9.7-9.6c0.1,0,0.1,0.1,0.2,0.1c11.7,5.4,21.4,12.6,29.1,13.2c7.7,0.6,27-3.3,27-3.3l1.4-4.4
			C284.5,105.4,277.5,105.9,263.7,95.1z"/>
		<g>
			<path fill="#191513" d="M263,101.9c0,3.3-2.7,6.1-6.1,6.1s-6.1-2.7-6.1-6.1s2.7-6.1,6.1-6.1C260.3,95.8,263,98.5,263,101.9z"/>
			<path fill="#FFFFFE" d="M260.5,99.8c0,1.6-1.6,0.8-3.6,0.8c-2,0-3.6,0.8-3.6-0.8s1.6-2.8,3.6-2.8C258.9,97,260.5,98.3,260.5,99.8
				z"/>
		</g>
		<g>
			<path fill="#484850" d="M204,272.9c0,0-4-26.5-3.8-30.5s2-10.7,2-10.7c0.9,3.8,3.7,3.8,7.3,2.7c0,0-2.1,4.2-3.1,8.4
				c-1.2,5.2,5.2,32,5.2,32C213.2,281.5,202.4,279.5,204,272.9z"/>
			<path fill="#32323B" d="M202.2,231.7c0.9,3.8,3.7,3.8,7.3,2.7c0,0-2.1,4.2-3.1,8.4c-0.4,1.6,0,5.3,0.7,9.7
				c-1.9,0.6-3.9,0.9-5.8,0.9c-0.6-5.1-1.1-9.6-1.1-11.1C200.4,238.3,202.2,231.7,202.2,231.7z"/>
			<path fill="#484850" d="M194.1,272c0.9-0.3,6.9-1.5,9.5-1.9c0.5-0.1,1.6,0.8,6.5,3c3.9,1.6,13.5,6.1,15.7,8.6
				c1.1,1.3,3,9.4,3,9.4c1.2,3.5-3,4.1-3.8,1.8c0,0-2-7.3-2.9-8.3c-0.9-1-8.7-4.2-8.7-4.2s4.8,3.9,5.7,6.1c1,2.4,1.8,7.5,1.8,7.5
				c0.8,4.1-3.1,4.8-4,2.4l-2.3-8l-4-5c-2.6-3.3-6.2-7.1-10.5-6.9l-4.1-0.2l-4.3-0.5C191.7,275.8,191.8,272.7,194.1,272z"/>
			<path fill="#787885" d="M228.6,292.1c-0.5-1-3.6-0.2-3,0.8c0,0,1.4,3.7,2.3,3.9C228.7,296.9,228.9,294,228.6,292.1z"/>
			<path fill="#787885" d="M220.3,295.1c-0.4-1-3.5-0.6-3.1,0.5c0,0,1,3.9,1.8,4.1C219.9,299.9,220.4,297,220.3,295.1z"/>
		</g>
		<g>
			<path fill="#505057" d="M194.2,207.5c0,0-107.4,31.6-117.4,21c-10-10.6,84.5-71.3,84.5-71.3L194.2,207.5z"/>
			<path fill="#61A298" d="M101.7,211.9c0,0,42.4-64,123.5-83.1c0,0,64.2,10.2,29.6,48.1C225.3,209.3,101.2,227.3,101.7,211.9z"/>
			<path fill="#39716E" d="M239,132.4c19.7,10.6,14.3,31.3,5.9,40.8c-19.6,22.3-108.7,44.8-142.8,40.2c5.2,9.2,68.2,2.4,113.3-14
				c-3.2,2.9-3.2,4.3,3.3,2.6c11.3-2.9,19-9.3,23.9-14.9c-4.1,6.2-5.1,9.7,1.9,4.9c18.8-12.9,20.5-33.8,20.5-33.8l0,0
				C266.3,144.3,251,136.4,239,132.4z"/>
			<path opacity="0.56" fill="#E3E2DE" enable-background="new    " d="M176.4,147.3c0,0,7.3,8.6,17.8,9.9
				c12.4,1.6,24.4,2.8,19.3,19.7c-5.1,16.9-6.6,15.3-0.3,23.1l-14,4.5c0,0-7.1-2.9-3.7-14.6c3.3-11.7,13.3-15.5,4.7-21.4
				s-22,0.3-28.7-18.6L176.4,147.3z"/>
			<path opacity="0.5" fill="#39716E" enable-background="new    " d="M109.2,209.3c0,0,73.7-10.9,121.3-36.1
				C230.5,173.2,199.8,201.6,109.2,209.3z"/>
		</g>
		<path fill="#9B9B70" d="M203.7,95.8c0,0,5.1,24.1,27.5,33c0,0-25.1,17.9-63.7,18.4C128.9,147.9,203.7,95.8,203.7,95.8z"/>
		<path opacity="0.5" fill="#9B9B70" enable-background="new    " d="M161.5,142.3c-1.1-0.1,36.7-0.1,58-16.4
			C219.5,125.9,206.5,146.3,161.5,142.3z"/>
		<g>
			<path fill="#2B3435" d="M307.6,112.1c0,0.2,0,0.3,0,0.5c0,0.2-0.1,0.3-0.1,0.5c0,0.1-0.1,0.3-0.2,0.4c-0.1,0.1-0.2,0.3-0.3,0.4
				c-0.3,0.3-0.7,0.6-1.2,0.7c0,0,0,0,0,0c-5.9,1.5-16.1,4-25.1,3.6c-1-1.4-1.8-2.8-2.3-4c0,0,0,0,0,0c-0.3-0.7-0.5-1.3-0.5-1.9V112
				c0-0.3,0.1-0.7,0.4-1.2c0.8-1.8,2.7-4.5,4.5-6.9c0.6-0.8,1.2-1.5,1.7-2.2c0.6-0.7,1.6-1.1,2.6-0.8c5,1.4,13.5,4.3,19.7,9.3
				C307.3,110.7,307.6,111.4,307.6,112.1z"/>
			<path opacity="0.5" fill="#111616" enable-background="new    " d="M305.7,114.5C305.7,114.5,305.7,114.5,305.7,114.5
				c-6,1.5-16.1,4-25.1,3.6c-1-1.4-1.8-2.8-2.3-4C287.5,115.7,296.6,115.7,305.7,114.5z"/>
			<path fill="#414F50" d="M280.2,103.5c0,0,0-0.1,0.1-0.1C280.3,103.4,280.2,103.5,280.2,103.5L280.2,103.5z"/>
			<path fill="#414F50" d="M307.6,112.1c0,0.2,0,0.3,0,0.5c0,0.2-0.1,0.3-0.1,0.5c0,0.1-0.1,0.3-0.2,0.4c-0.1,0.1-0.2,0.3-0.3,0.4
				c-8-3.8-15.7-8.3-24.2-9.9c0.6-0.8,1.3-1.6,1.8-2.3c0.5-0.7,1.5-1,2.4-0.7c5,1.4,13.6,4.3,19.8,9.3
				C307.3,110.7,307.6,111.4,307.6,112.1z"/>
			<path fill="#111616" d="M299.8,113.8c0,0-12.6,1-21.5,0.2c-0.3-0.7-0.5-1.3-0.5-1.9V112c0-0.3,0.1-0.7,0.4-1.2
				C280,111.4,288.2,114,299.8,113.8z"/>
		</g>
		<path fill="#056A94" d="M217.7,86.7"/>
		<path fill="#2A81A4" d="M283.8,80.1c-8.3,4.5-34,1.8-34.3-2.8c-0.1-1.6,5.5-3.3,5.5-3.3s-23-7.1-24.7-11.9
			c-0.7-2,13.5-6.8,24.7-6.1c0,0-4.4-6.2-2.8-7.3C255.6,46.1,283.8,56.6,283.8,80.1z"/>
	</g>
</g>
<g display="none">
	<g display="inline">
		<g>
			<g>
				<path fill="#543A17" d="M312.9,344.6c0,0-28.5-19.6-41.9-30.4c-24.3-19.5-56.8-20.7-81.4-39c-10.1-7.6-17.5-18.2-23.8-29
					c-4.2-7.1-7.7-18.7-16.4-21c-12.5-3.4-25.4,0.5-38-1.6c-13.1-2.2-21.9-12.2-27.7-23.4c-0.4-0.8-0.1-1.8,0.7-2.2
					c2.3-1.2,9.2,7,11,8.3c5,3.8,10.8,6.8,17.3,6.9c8.3,0.1,16.4-2.3,24.6-3.3c0.7-7.9,1.5-17-5.1-22.8c-3.5-3-13.6-11.1-11.3-17
					c0.4-0.9,0.9-1.6,1.3-1.4c2.1,1.2,2.9,4.9,7.6,8.8c2.7,2.3,5.8,3.4,8.6,5.4c8.6,5.9,7.7,17.1,9.4,26.2
					c16.9,2.4,24.5,13.6,32.5,27.6c9.5,16.5,21.4,29.6,39.5,36.7c20.7,8,40.2,11.6,57.7,26.2c13.9,11.6,31.5,17.2,46.5,27.3
					C337.4,335,326.2,352.9,312.9,344.6z"/>
				<path opacity="0.5" fill="#543A17" enable-background="new    " d="M265.2,291c-14.2-8-29.4-11.6-45.4-17.7
					c-18.1-7-30-20.1-39.5-36.7c-4.4-7.6-8.6-14.3-14.2-19.3c-4.3,3.1-8.2,6.6-11.5,10.8c5.1,4.5,8,12.6,11.2,18.1
					c6.3,10.9,13.7,21.4,23.8,29c9.8,7.3,20.8,11.8,32,15.9C235.9,293,250.6,292.5,265.2,291z"/>
				<path opacity="0.5" fill="#3A2814" enable-background="new    " d="M161.1,227.6c-21-21.1-47.7,6.3-72.8-19.9
					c5.6,7.9,13.1,14.2,23.1,15.8c12.6,2.1,25.5-1.8,38,1.6c8.6,2.3,12.2,13.9,16.3,21c6.3,10.9,13.7,21.4,23.8,29
					c24.6,18.3,57.2,19.6,81.5,39c13.4,10.7,41.9,30.4,41.9,30.4c5.2,3.3,10.1,2.5,13.3-0.1c-25.6-14.1-45.4-32.6-69.5-45.1
					c-20.1-12.3-48.7-16.4-65-30.5C178.9,257.8,169.5,236.1,161.1,227.6z"/>
				<path fill="#71512A" d="M330,339.1c-1.4,5.4-6.3,8.9-10.8,7.7s-7.1-6.5-5.7-12c1.4-5.4,6.3-8.9,10.8-7.7S331.4,333.6,330,339.1z
					"/>
			</g>
			<path opacity="0.5" fill="#3A2814" enable-background="new    " d="M137.3,209.7c0.7-7.9,1.5-17-5.1-22.8
				c-3.5-3-13.6-11.1-11.3-17c0.4-0.9,0.8-1.3,1.3-1.4c-0.6,10.5,10.6,14.4,15.9,21.2C143.4,196.6,137.3,209.7,137.3,209.7z"/>
		</g>
		<g>
			<path fill="#484850" d="M248.1,228.4c-1.1,0-4.5,0.3-7.6,0.9c-0.6,0.1-5.5-2.2-10.2,2.3c-3.8,3.4-13,12.3-14.6,16.1
				c-0.8,1.9,0.3,11.9,0.3,11.9c0,4.4,5.1,3.5,5.1,0.5c0,0-0.6-9.1,0-10.6c0.6-1.5,8.3-8.2,8.3-8.2s-3.9,6.4-4.1,9.2
				c-0.2,3.1,0.9,9.2,0.9,9.2c0.7,5,5.5,4.3,5.5,1.1l-0.6-10.1l2.6-7.3c1.7-4.8,4.2-6.1,9.1-7.6l4.6-1.8l4.7-2.2
				C252.2,231.8,250.9,228.3,248.1,228.4z"/>
			<path fill="#787885" d="M216.7,260.6c0.2-1.4,4-1.6,3.8-0.3c0,0-0.1,4.8-1.1,5.3C218.4,266.2,217.1,262.9,216.7,260.6z"/>
			<path fill="#787885" d="M227.3,260.7c0.1-1.4,3.8-2.1,3.7-0.7c0,0,0.4,4.8-0.5,5.4C229.6,266,227.9,262.9,227.3,260.7z"/>
		</g>
		<g>
			<path fill="#543A17" d="M270.7,339.7c0,0.4-0.1,0.9-0.2,1.3c0.1,0.2,0.2,0.3,0.4,0.5C270.8,340.9,270.7,340.3,270.7,339.7z"/>
			<path fill="#96ABC0" d="M198.7,106.1c-6,6.3-34.8,48,0.7,103.6c0,0,18.9,32.9,73.3,32.6c0,0,14.1-0.5,27,5.9
				c0,0,47.9,57.9,61.3,55.3l-48.8-94.9C305,140,238.6,64.3,198.7,106.1z"/>
			<path fill="#B2CDDD" d="M182,157.4c-1.1,18.7,6.5,37.9,17.4,52.3c0,0,18.9,32.9,73.3,32.6c0,0,14.1-0.5,27,5.9
				c0,0,32.2,47.2,37.4,47.3c4.6,0.1-18.4-32.8-31-50.7C288.3,219.7,200.6,259.3,182,157.4z"/>
			<path fill="#394495" d="M312.2,208.5l68.4,75.3c0,0-5.9,17.5-22.9,0L312.2,208.5z"/>
			<path fill="#4C59A4" d="M313.8,211.3c0,0,39.7,50.5,53.5,76.8c2.2,4.2,2.1,29.7-16,10.1l-64.5-95.9L313.8,211.3z"/>
			<path fill="#394495" d="M268.5,121.2c-1.6,29.1,11.5,57,32.9,76.1c2.3,2.1,5.5,3,8.5,2.5l0,0C312.2,118,284.8,97.5,285.2,97
				C275.5,101.1,270.4,111.9,268.5,121.2z"/>
			<path fill="#E59D58" d="M268.5,121.2c1.9-9.3,7-20.2,16.7-24.2c5-5.4,5.8-15.8,4.8-20.7c-24.1,14.9-53.9,9.3-83,6.9
				c-5.1,5.6-9.7,13.8-13.4,21.2c-9.1,18.2-10.8,60.1,19.3,77.1c11.3,6.4,26,10.9,40.5,14c20.7,4.4,36.5-18.1,25.5-36.2
				C272,147.6,267.7,136.7,268.5,121.2z"/>
			<path fill="#D57533" d="M271.9,115.3c-5-5.6-14.8-8.6-22-6.5c-20.7,4.8-25.4,37.6-16.8,54.7c14.6,28.9,49.1,50.1,86.2,50.1
				C321,213.7,299.2,157.5,271.9,115.3z"/>
			<path fill="#545DA5" d="M287.5,92.7c-14.2-21.9-31.2,8.7-58.1,4.3c-16.2-2.6-23.5-8.6-22.3-13.9c3.1-13.4,5.8-24.8,11.9-33.4
				c5.6-8,14.2-13.5,28.4-15.6c21.4-3.1,41.7,11.6,46.4,28C296,70.1,293.9,84.3,287.5,92.7z"/>
			<g>
				<path fill="#040406" d="M265.7,63.6c0,3.5-2.9,6.4-6.4,6.4c-3.5,0-6.4-2.9-6.4-6.4s2.9-6.4,6.4-6.4
					C262.8,57.2,265.7,60.1,265.7,63.6z"/>
				<circle fill="#F8F9FD" cx="261.8" cy="61.8" r="2.5"/>
			</g>
		</g>
		<path fill="#384B99" d="M240.6,35.9c0,0-18.1-6.5-21.2-1.5s14.8,4,14.8,4s-18.4,0.2-16.7,4.6c1.6,4.4,21.1-3.1,21.1-3.1
			L240.6,35.9z"/>
		<g>
			<path fill="#484850" d="M252.3,279.6c0,0,18.9-26.3,20.9-30.8s3.7-12.7,3.7-12.7c-3,3.6-6.1,2.1-9.3-1.1c0,0,0,5.7-1.3,10.8
				c-1.6,6.2-23.2,31.6-23.2,31.6C237.7,283.8,250.5,287.5,252.3,279.6z"/>
			<path fill="#32323B" d="M276.9,236.1c-3,3.6-6.1,2.1-9.3-1.1c0,0,0,5.7-1.3,10.8c-0.5,1.9-2.9,5.8-6.1,10.1
				c1.8,1.7,3.7,3.1,5.7,4.2c3.5-5.1,6.5-9.7,7.2-11.3C275.2,244.3,276.9,236.1,276.9,236.1z"/>
			<path fill="#484850" d="M259.4,281.4c-1-0.6-4-2.1-6.9-3.2c-0.6-0.2-3.5-4.8-9.9-3.5c-5.1,0.9-19.1,3.5-21.4,6.9
				c-1.1,1.7-1.9,11.8-1.9,11.8c-0.8,4.3,4.3,4.4,4.9,1.5c0,0,1.1-9,2-10.4c0.9-1.4,10.6-2,10.6-2s-8.8,4.6-8.7,7.3
				c0.1,3.1,1.6,9.1,1.6,9.1c1.1,4.9,5.8,3.8,5.6,0.7l-1.4-10l5.4-3c4-3.2,6.8-3,11.8-1.7l4.3,1.1l5.3,2.5
				C260.6,288.5,261.8,282.8,259.4,281.4z"/>
			<path fill="#787885" d="M219.6,294.5c0.5-1.3,4.2-0.8,3.8,0.5c0,0-1,4.7-2.1,5C220.3,300.3,219.6,296.9,219.6,294.5z"/>
			<path fill="#787885" d="M230.7,299.9c0-1.4,3.6-2.4,3.7-1c0,0,0.8,4.8-0.1,5.4C233.5,305,231.5,302.1,230.7,299.9z"/>
		</g>
		<path fill="#384B99" d="M293.8,62.1l-17.9,1.5c0,0-15.9-27.6-56.9-13.8c5.6-8,14.2-13.5,28.4-15.6C268.8,31,289.1,45.7,293.8,62.1
			z"/>
		<path fill="#545DA5" d="M380.3,266.3c-0.3,0.3-1,0.2-2-0.1c-12.9-4.1-79.7-54.3-106.9-76.9c-51.3-42.8-40.9-75.2-24.3-85.7
			c0,0,0,0,0,0c4.5-2.8,9-3.5,13.2-3c11.4,1.4,20.4,11.6,20.4,11.6s23.6,22.2,40.5,51l0,0c4.7,8.1,9,16.6,12,25.4
			c5.4,15.5,3.7,17.2,3.7,17.2c0,0,0,0,0,0c1.2,1.5,39.6,47.4,43.2,58.4C380.7,265.2,380.7,266,380.3,266.3z"/>
		<path fill="#6A75B3" d="M320.3,176.4c-8.1,6.4-38-18.3-54.5-39.3c-16.3-20.8-13.3-30.2-5.4-36.6c11.4,1.4,20.4,11.6,20.4,11.6
			s23.6,22.2,40.5,51l0,0C322.9,169.5,322.8,174.4,320.3,176.4z"/>
		<path fill="#39383F" d="M380.3,266.3c0,0-0.7,0-2-0.1c-12.9-4.1-79.7-54.3-106.9-76.9c-51.3-42.8-40.9-75.2-24.3-85.7c0,0,0,0,0,0
			s-34.2,32.7,32,85.8c44.6,35.8,85.8,60.8,85.8,60.8l-27.9-44.4c1.2,1.5,39.6,47.4,43.2,58.4C380.5,265.6,380.3,266.3,380.3,266.3z
			"/>
		<g>
			<path fill="#242426" d="M273.4,70.8c0,0,14.1,7.3,37-8.5C295.3,57.4,282.5,58.8,273.4,70.8z"/>
			<path fill="#39383F" d="M273.4,70.8c0,0,4.1-16.4,11.4-16c0,0,19,0,26,6.3c0.4,0.3,0.9,1-0.3,1.2
				C305.4,62.9,280.7,64.1,273.4,70.8z"/>
			<path opacity="0.6" fill="#93939E" enable-background="new    " d="M311.1,61.9c0.2-0.3-0.1-0.7-0.4-0.9c-7-6.3-26-6.3-26-6.3
				c-2.1-0.1-4,1.2-5.5,3.2C288.4,57.3,299,58.1,311.1,61.9z"/>
			<path fill="#101011" d="M273.4,70.8c0,0,3.8-4,14.8-5.7l-13.5,6.2L273.4,70.8z"/>
		</g>
	</g>
</g>
<g id="Layer_3" display="none">
	<path display="inline" fill="#543A17" d="M235.8,216.8c0.2,0.4,0.5,0.7,0.7,1c-0.3-0.6-0.6-1.2-1-1.8
		C235.6,216.3,235.7,216.6,235.8,216.8z"/>
	<g display="inline">
		<g>
			<g>
				<path fill="#543A17" d="M314.2,345.3c0,0-32.9-17.8-48.6-27.8c-28.4-18.1-63.5-15.6-92.1-32.5c-11.8-7-20.9-17.5-29-28.4
					c-5.3-7.2-10.5-19.2-20-20.6c-13.8-2.2-27.2,3.5-41,2.7c-14.3-0.8-24.9-10.5-32.5-22c-0.6-0.8-0.3-1.9,0.5-2.5
					c2.4-1.6,10.7,6.4,12.8,7.6c5.9,3.5,12.4,6.1,19.4,5.4c8.9-0.9,17.4-4.4,26.1-6.4c-0.2-8.6-0.3-18.5-8.2-23.8
					c-4.1-2.8-15.9-10.4-14.1-16.9c0.3-1,0.8-1.9,1.3-1.6c2.4,1.1,3.7,4.9,9.2,8.5c3.2,2.1,6.7,3,9.9,4.8c9.9,5.4,10.3,17.4,13.1,27
					c18.4,0.6,27.9,11.8,38.1,25.9c12.1,16.7,26.5,29.4,46.7,34.8c23.1,6.2,44.6,7.8,65.1,21.4c16.3,10.9,35.8,14.8,53.2,23.9
					C339.4,332.2,329.5,352.7,314.2,345.3z"/>
				<path opacity="0.5" fill="#543A17" enable-background="new    " d="M256.7,293.3c-16.2-7-33-9-50.8-13.8
					c-20.3-5.4-34.6-18.1-46.8-34.8c-5.6-7.6-10.9-14.4-17.6-19.1c-4.3,3.8-8.1,8.1-11.1,12.9c6,4.2,10,12.6,14.1,18.2
					c8.1,10.9,17.2,21.4,29,28.4c11.3,6.7,23.7,10.3,36.2,13.4C225.4,298.8,241.1,296.6,256.7,293.3z"/>
				<path opacity="0.5" fill="#3A2814" enable-background="new    " d="M137.4,237.3c-25-20.2-50.5,12.3-80.5-12.9
					c7,7.9,15.7,13.7,26.7,14.3c13.8,0.8,27.2-4.9,41-2.7c9.5,1.5,14.7,13.5,20,20.7c8.1,10.9,17.2,21.4,29,28.4
					c28.6,16.8,63.7,14.4,92.1,32.5c15.7,10,48.6,27.8,48.6,27.8c6,2.9,11.1,1.5,14.3-1.7c-29.2-12.2-52.5-29.7-80-40.4
					c-23-10.9-54.3-12-73.4-25.2C160.1,267.7,147.4,245.4,137.4,237.3z"/>
				<path fill="#71512A" d="M331.9,337.4c-0.9,6-5.7,10.3-10.7,9.5s-8.4-6.2-7.5-12.2s5.7-10.3,10.7-9.5
					C329.4,325.9,332.8,331.4,331.9,337.4z"/>
			</g>
			<path opacity="0.5" fill="#3A2814" enable-background="new    " d="M109.8,220.9c-0.2-8.6-0.3-18.5-8.2-23.8
				c-4.1-2.8-15.9-10.4-14.1-16.9c0.3-1,0.7-1.5,1.3-1.6c0.6,11.4,13.1,14.3,19.5,20.9C114.8,206,109.8,220.9,109.8,220.9z"/>
		</g>
		<path fill="#484850" d="M167.1,245.3c0,0,23.3-17.2,26.2-20.5s6.6-9.7,6.6-9.7c-3.5,2.2-5.8,0.1-7.6-3.5c0,0-1.6,4.9-4.1,8.8
			c-3,4.9-28.4,20.5-28.4,20.5C153.5,244.8,163.3,251.5,167.1,245.3z"/>
		<path fill="#32323B" d="M193.3,224.8c2.9-3.3,6.6-9.7,6.6-9.7c-3.5,2.2-5.8,0.1-7.6-3.5c0,0-1.6,4.9-4.1,8.8
			c-1.2,2-6.1,5.7-11.4,9.4c0.9,2,1.9,3.9,3.2,5.8C185.9,231,191.9,226.3,193.3,224.8z"/>
		<path fill="#301812" d="M203.2,122.4c-12,5.2,14.3,120.8,166,118.8c3,0,4.5-3.6,2.4-5.7C345.1,208.6,228.7,93.4,203.2,122.4z"/>
		<path fill="#301812" d="M309.1,233.3c14,18.6,32.4,64.6,58.1,113.8c1.3,2.5,4.5,3.1,6.6,1.5c6.8-5.2,17.3-18.5,0.6-44.1
			c-26-40-54.5-81.3-54.5-81.3L309.1,233.3z"/>
		<path fill="#191513" d="M330.8,219.1c18.9,25.3,68.7,74.7,90,114c1.5,2.8,0.2,6.3-2.9,7.4c-8,2.8-24.2,3.5-42.5-23.5
			c-29.7-44-59.7-91-59.7-91L330.8,219.1z"/>
		<path fill="#E1311F" d="M294.4,254.3c-38.6-1.4-76.2-14.8-76.2-14.8c-62.3-23.5-57.9-104.9-57.9-104.9c4.4-26.7-22.9-61-22.9-61
			v-11C185.7,24,230.2,40,241.6,74.4c8.9,34.7,31.4,51.1,39.3,55.3c28.8,15.3,48.9,58.3,60.1,91.2v0c4.2,12.3,7.1,23.2,8.8,30.6
			c0.2,1,0.4,1.9,0.6,2.7C353.4,269.5,302.1,254.5,294.4,254.3z"/>
		<path fill="#D42018" d="M243.5,101.4c5.3,15.1,14.5,24.2,28,32.7c36.6,23,69.3,68.4,78.7,119.5c-3.7-26.1-8.5-81.2-66.6-125.2
			c-17.9-13.6-24.8-14.3-41.1-55.5c-9.4-23.7-33.2-37.6-63.6-31.2C217.7,38.9,232.6,70.4,243.5,101.4z"/>
		<path fill="#E8402D" d="M159.9,119.6c0,0,28.6,11.9,52.5-19.3c11.8-15.4-8.1-60.2-70.5-32.1v9.6
			C141.9,77.8,156.4,104.4,159.9,119.6z"/>
		<path fill="#D83325" d="M181.2,81.4c-3.2-12.8-22.6-23.8-39.3-13.2v9.6c0,0,2.1,10.3,11.4,23.5C168.4,103.5,184.8,97.8,181.2,81.4
			z"/>
		<path fill="#E8402D" d="M163.9,170.8c0,0,87.1-6.7,130.4,83.4C271.5,249.2,181.5,257.3,163.9,170.8z"/>
		<path fill="#543A17" d="M114.6,73.5c-0.3,0-0.3,0.4-0.1,0.5c2.4,1.8,12.5,8.7,32.2,12.6c8.7,1.7,18.1,2.3,25.6-1
			C172.3,85.7,136.9,70.1,114.6,73.5z"/>
		<path opacity="0.5" fill="#CD1417" enable-background="new    " d="M349.7,251.6c-142.1-19.4-154-132.4-141.8-136.1
			c23.1-20.9,94.3,58.4,133,105.4v0C345.1,233.3,348.1,244.2,349.7,251.6z"/>
		<g>
			<path fill="#191513" d="M210.5,113c-12.5,3.8,0.3,121.6,151.2,137.3c2.9,0.3,4.8-3,3-5.4C341.6,215.1,239.2,87.1,210.5,113z"/>
			<path fill="#2D2622" d="M305.8,193.3c5.2,0,10.5-0.3,15.7-0.9c-22.6-25.8-49.5-53.9-71.9-69.8c-11.7-8.3-26.4,5.7-18.7,17.9
				C246.2,164.5,272.4,193.3,305.8,193.3z"/>
		</g>
		<path fill="#A8763D" d="M113.2,72.2c-0.5,0.5-0.2,1.3,0.5,1.4c11.3,0.6,55.9,8.5,58.6,12.1c15.9-8.4-43.2-11.2-30-24.2
			C142.3,61.5,120.8,64.4,113.2,72.2z"/>
		<path fill="#E2995D" d="M142.3,61.5c0,0-21.4,2.9-29.1,10.7c-0.4,0.4-0.2,1,0.2,1.3c8.5-3.9,18-5.9,27.4-6.6
			C139.9,65.3,140.2,63.5,142.3,61.5z"/>
		<circle fill="#191513" cx="172.3" cy="65.2" r="7.6"/>
		<path fill="#FCFAF8" d="M172.3,62.7c0,1.4-1.1,2.5-2.5,2.5c-1.4,0-2.5-1.1-2.5-2.5c0-1.4,1.1-2.5,2.5-2.5
			C171.2,60.2,172.3,61.3,172.3,62.7z"/>
		<path fill="#E1311F" d="M174.6,43.3c0,0,11.6-11.4,15.8-8.7c4.2,2.7-10,8.4-10,8.4s14.2-6.4,14.5-2.5c0.3,4-17.3,5.1-17.3,5.1
			L174.6,43.3z"/>
		<path fill="#E1311F" d="M326.5,255.2c0,0,16.3,0.6,17.2,5.4c0.9,4.9-12.9-1.5-12.9-1.5s14.4,5.9,11.8,8.8c-2.7,2.9-15.6-9-15.6-9
			L326.5,255.2z"/>
		<g>
			<path fill="#484850" d="M228.3,279.8c0,0,11.8-26.5,12.7-30.7s1-11.7,1-11.7c-2,3.7-5,2.9-8.4,0.7c0,0,1,5,0.8,9.7
				c-0.3,5.7-14.6,31.8-14.6,31.8C216.3,286.1,228.1,287.1,228.3,279.8z"/>
			<path fill="#32323B" d="M242,237.3c-2,3.7-5,2.9-8.4,0.7c0,0,1,5,0.8,9.7c-0.1,1.8-1.5,5.6-3.5,9.9c1.8,1.1,3.8,2,5.8,2.6
				c2.1-5.1,3.9-9.7,4.3-11.2C242,244.8,242,237.3,242,237.3z"/>
			<path fill="#484850" d="M237.3,283c-0.8-0.6-3.4-2-6-3.2c-0.5-0.2-3.5-2.5-9.3-1.6c-4.6,0.6-15.8,2.5-18.9,4.5
				c-1.6,1-5.8,8.9-5.8,8.9c-2.2,3.3,2,5.1,3.5,3c0,0,4.1-7,5.4-7.8c1.2-0.8,10.3-1.9,10.3-1.9s-8,3.6-8.2,6.1
				c-0.3,2.8,0.5,8.3,0.5,8.3c0.5,4.5,4.7,4,4.9,1.2l-0.2-9l5.1-2.8c3.7-2.7,6.8-4.3,11.2-2.9l4,0.1l4.6,1.1
				C238.3,287.1,239.4,284.4,237.3,283z"/>
			<path fill="#787885" d="M197.2,292.7c0.8-0.9,3.8,0.8,2.9,1.7c0,0-2.5,3.5-3.5,3.4C195.7,297.7,196.4,294.6,197.2,292.7z"/>
			<path fill="#787885" d="M209.6,300.3c0.1-1.2,3.5-1.7,3.4-0.5c0,0,0.2,4.3-0.6,4.8S210.1,302.3,209.6,300.3z"/>
		</g>
		<g>
			<path fill="#484850" d="M171.8,253.8c-0.4-0.9-2-3.4-3.7-5.7c-0.3-0.4-0.4-5.3-5.8-7.3c-4.3-1.7-14.9-5.6-18.6-5.4
				c-1.9,0.1-9.4,4.9-9.4,4.9c-3.6,1.7-0.8,5.4,1.6,4.3c0,0,7.1-4,8.5-4.1c1.5-0.1,9.9,3.4,9.9,3.4s-6.7-0.7-9,0.3
				c-2.6,1.1-7.1,4.3-7.1,4.3c-3.7,2.5-1.3,6.1,1.3,4.9l7.9-4.4l6.8-0.8c4.6-0.5,6.6,1,9.7,4.4l3.3,3l3.6,2.9
				C170.7,258.4,172.9,256,171.8,253.8z"/>
			<path fill="#787885" d="M133.6,241.2c1.2-0.4,2.9,2.6,1.7,2.9c0,0-3.9,1.8-4.7,1.2S132,242.4,133.6,241.2z"/>
			<path fill="#787885" d="M137.7,249.7c1.1-0.5,3.1,2.2,2,2.7c0,0-3.7,2.2-4.5,1.7C134.3,253.7,136.2,251.1,137.7,249.7z"/>
		</g>
	</g>
</g>
<g id="Layer_4" display="none">
	<g display="inline">
		<g>
			<path fill="#543A17" d="M370.3,314.9c-2.7-1.9-11.2,7.3-14.3,8.4c-5.5,2-11.4,1.6-17,0.2c-5.5-1.4-12.4-1.7-17.6-3.5
				c-8.4-3-14.5-10.8-22.3-15.2c-8.7-5-18.2-8.3-27.8-11.2c-10.3-3.1-65.8-13.1-61.2-29.9c3.2-11.8,13.8-20.9,17.9-32.8
				c7.9-22.8-2.8-39.1-24.3-47.2c-10.6-4-21.9-6.1-33-8.2c-12-2.3-29.1-2.9-37.8-12.2c-6.3-6.7-8.6-16.6-14.5-23.7
				c-10.7-12.7-29.3-9.1-43.2-15.2c-1.8-0.8-4.9-2.8-7.6-4.1c-1.7-0.8-3.1-1.3-3.9-1c-0.4,0.1-0.7,0.5-0.9,1.2
				c-0.3,1,0.1,2.7,1.9,4.7c5.9,6.6,12,8.5,17.9,10.3c12.8,3.9,22.1,0.9,31.2,18.1c5.5,10.3,11.4,21.1,22.3,26.8
				c4.5,2.3,9.2,4.1,14,5.6c9.9,3.1,20.2,5,30.1,7.8c16.3,4.7,37.2,9,29.7,30.8c-0.6,1.6-1.3,3.2-2.1,4.8
				c-5.7,11.5-16.6,22.6-17.9,34.7c-3.3,30.6,49.5,40.3,69.8,46.7c22.6,7.2,52.7,29,66.7,49.1c1.4,1.9,3.9,1.9,6.7,0.8
				c6.2-2.4,13.6-9.9,12-12.6c-3.4-5.8-13.3-15.8-15.8-19.1c2.6,0.3,5.2,0.6,7.7,0.8c13.2,1.4,24.8,1.5,34-11.6
				c0.2-0.3,0.4-0.7,0.4-1.1C371.5,316.5,371.1,315.5,370.3,314.9z M324.1,354.2c0.1,0.6,0.3,1.2,0.5,1.7
				C324.4,355.5,324.2,354.8,324.1,354.2z"/>
			<path opacity="0.5" fill="#71512A" enable-background="new    " d="M151.3,184.2l-1.3,1.9c-4.8-1.5-9.5-3.3-14-5.6
				c-10.9-5.7-16.8-16.5-22.3-26.8c-9.1-17.2-18.4-14.2-31.2-18.1c-5.9-1.8-12-3.7-17.9-10.3c-1.8-2-2.1-3.7-1.9-4.7
				c4.4,4.5,12,10.2,24,13c21.5,5.1,23,6,32,21.3S133.8,173.7,151.3,184.2z"/>
			<path opacity="0.5" fill="#543A17" enable-background="new    " d="M210.1,263.7c3.2-11.8,13.8-20.9,17.9-32.8
				c2.8-8,3.2-15.2,1.7-21.6c-6.3,0.3-12.8,0.9-19.2,2c1.2,3.5,1.1,7.9-0.8,13.3c-4.6,13.3-18.5,25.8-20,39.6
				c-2.3,20.9,21.6,32,43.5,39.1c21.2,6.2,28.2-9.2,52.7-3.5c0.5-0.2,1.1-0.4,1.6-0.6c-5.3-2.2-10.8-4-16.3-5.6
				C261,290.5,205.5,280.5,210.1,263.7z"/>
			<path opacity="0.5" fill="#71512A" enable-background="new    " d="M335.5,355.9c0,0-1,2-2.4,4.9c-2.8,1.1-5.4,1.2-6.7-0.8
				c-14-20.1-44.2-41.9-66.7-49.1c-20.3-6.4-73.1-16.2-69.8-46.7c1.3-12.1,12.2-23.2,17.9-34.7c0,0,0,0.1,0.1,0.2
				c3.9,15.9-18.6,25.6-9.5,45.4c9.2,19.8,69.5,30.6,89.3,39.1C307.4,322.7,335.5,355.9,335.5,355.9z"/>
			<path fill="#71512A" d="M345.1,348.3c2.4,4.2,0.1,10.1-5.2,13.1c-5.3,3.1-11.6,2.1-14-2c-2.4-4.2-0.1-10.1,5.2-13.1
				C336.4,343.1,342.6,344.1,345.1,348.3z"/>
		</g>
		<g>
			<path fill="#484850" d="M209.6,276.1c0,0-1.4-29.3-0.8-33.3c0.6-4,3-10.5,3-10.5c0.5,3.8,3.4,4.2,7,3.3c0,0-2.5,4-3.9,8.1
				c-1.6,5.1,2.3,32.3,2.3,32.3C218.3,282.9,210.8,286.6,209.6,276.1z"/>
			<path fill="#32323B" d="M211.8,232.2c0.5,3.8,3.4,4.2,7,3.3c0,0-2.5,4-3.9,8.1c-0.5,1.6-0.5,5.3-0.2,9.7c-2,0.4-3.9,0.5-5.9,0.4
				c-0.2-5.1-0.3-9.6-0.1-11.1C209.4,238.7,211.8,232.2,211.8,232.2z"/>
			<path fill="#484850" d="M202.5,286.6c0.4-0.8,2.5-2.7,4.4-4.5c0.4-0.3,1.3-4.7,6.7-5.5c4.2-0.7,13.7,0.2,17,1.1
				c1.7,0.5,8.5,3.9,8.5,3.9c2.9,2.3-0.3,5.1-2.2,3.6c0,0-5.9-3.1-7.3-3.5c-1.3-0.4-9.2-0.7-9.2-0.7s6.2,0.7,8.1,2
				c2.1,1.5,5.5,5.3,5.5,5.3c2.9,3,0,5.7-2.1,4.2l-6.3-5.5l-6-2c-4-1.4-6.1-0.4-9.6,2l-3.5,2.1l0.3,2.7
				C206.7,291.9,199.9,291.7,202.5,286.6z"/>
			<path fill="#787885" d="M239.5,282.6c-1-0.5-3.1,1.8-2.1,2.3c0,0,3.2,2.4,4,2C242.2,286.6,240.7,284,239.5,282.6z"/>
			<path fill="#787885" d="M234.1,289.5c-0.9-0.6-3.3,1.4-2.4,2.1c0,0,2.9,2.7,3.8,2.4C236.4,293.8,235.3,291.1,234.1,289.5z"/>
		</g>
		<g>
			<path fill="#7C7D8F" d="M216.7,79.8c27.4,1.2,41.8,37.5-20.9,97.3c-20.1,19.2-68.1,51.3-73.3,45.2c-6.4-7.4,5.7-29.1,25.6-65.3
				C168,120.7,192.3,78.7,216.7,79.8z"/>
			<path fill="#CCB34C" d="M216.7,79.8c0,0-30.4-4.1-54.7,52.5c0,0,28.3,20.9,70.8-15.2c7.9-6.7,10.4-18,5.6-27.1
				C235.2,83.9,228.9,78.9,216.7,79.8z"/>
		</g>
		<path fill="#484850" d="M194.2,242.8c0,0-5.3-9.4,8.6-10V227c0,0-15.1-0.3-14.2,12.5C189.3,244.7,195.3,247.6,194.2,242.8z"/>
		<path fill="#857A8B" d="M86.1,279.2c12.8-15,46.7-51.6,90.3-76.2c-19.7-17.9-110.6,41.9-103,73.2
			C74.8,281.9,82.2,283.7,86.1,279.2z"/>
		<path fill="#EDC623" d="M190.1,231.3c0,0,11.6,8.3,17.8,14.2c2.6,2.5,6.6,2.7,9.6,0.6c8.5-6,23.7-16.8,26.5-18.9L190.1,231.3z"/>
		<path fill="#5E5C71" d="M95.8,290.5c10.9-16.4,40.2-56.8,80.7-86.4c-21.6-15.5-104.8,54.7-93.6,84.9
			C84.9,294.5,92.4,295.4,95.8,290.5z"/>
		<path fill="#B4B0C9" d="M116.8,298.6c9.5-17.3,35.1-60.1,72.8-93.1c-22.9-13.5-99.7,63.6-85.8,92.7
			C106.3,303.6,113.9,303.8,116.8,298.6z"/>
		<path fill="#FFDE53" d="M276.1,212.7c-14.3,11-29.2,17.4-43.4,20.8c-13.9,3.3-27.2,3.6-39,2.2c-4.7-0.6-9.1-1.4-13.3-2.4
			c-14.3-3.5-25-9.3-29.4-14c-11.5-12.3-3.9-61.9,41.2-110.6c10.6-21.7,32.2-34.7,55.1-35.3c8.3-0.2,16.8,1.2,25,4.5
			c3.9,1.5,7.6,3.1,11.1,4.5c4.5,1.8,8.5,3.5,11.6,4.8c4.9,2.1,9.2,5.6,11.4,10.4C323,132.3,318.5,180.3,276.1,212.7z"/>
		<path fill="#EDC623" d="M276.1,212.7c-14.3,11-29.2,17.4-43.4,20.8c-13.9,3.3-27.2,3.6-39,2.2c-4.7-0.6-9.1-1.4-13.3-2.4
			c17.7,2.9,49.4,2.2,83.1-27.1c51.2-44.6,12.6-108.9,12.6-108.9c1.2-5.2,3.7-10.6,7.2-15c4.5,1.8,8.5,3.5,11.6,4.8
			c4.9,2.1,9.2,5.6,11.4,10.4C323,132.3,318.5,180.3,276.1,212.7z"/>
		<path fill="#BEAC60" d="M199.7,122.7C242.3,141.3,305.2,95,302,90.2c0,0-27.5-12.1-51.2-20.5c-18.2-6.4-38.3,1.2-47.6,18
			C201.6,90.7,189.5,118.1,199.7,122.7z"/>
		<path fill="#FFDE53" d="M318.5,69.6c-0.2,4.1-0.8,8.6-2.2,13.5c-2.4,8.8-8.1,16.5-15.9,21.2c-1.5,0.9-2.9,1.6-3.7,1.7
			c-6.5,1-15.3,1.7-25.7,0.2c-12.4-1.8-27.2-6.8-43.4-18.2c-27.8-22.6,26.7-79.3,69.8-56C297.4,31.9,319.7,41.8,318.5,69.6z"/>
		<path fill="#EDC623" d="M318.5,69.6c-0.2,4.1-0.8,8.6-2.2,13.5c-2.4,8.8-8.1,16.5-15.9,21.2c-1.5,0.9-2.9,1.6-3.7,1.7
			c-6.5,1-15.3,1.7-25.7,0.2c-1.1-0.7-1.7-1.1-1.7-1.1c-55.8-20.8-7.3-58.7,11.5-58.7c30.2,0,32.9,17.2,32.9,17.2
			S315.5,65.7,318.5,69.6z"/>
		<g>
			<path fill="#5C5966" d="M300,69.9c0,0,19.1,9.1,55.2-3.6C334.3,59.5,315.5,59.3,300,69.9z"/>
			<path fill="#4D4E5A" d="M300,69.9c0,0,9.1-15.7,19.6-14.3c0,0,27.5,2.5,36.5,9.7c0.5,0.4,1.1,1.2-0.6,1.2
				C347.9,66.4,311.9,64.3,300,69.9z"/>
			<path fill="#93939E" d="M356.5,66.2c0.4-0.3,0-0.7-0.4-1c-9-7.2-36.5-9.7-36.5-9.7c-3.1-0.4-6,0.7-8.6,2.4
				C324.4,58.5,339.6,60.8,356.5,66.2z"/>
			<path fill="#3E3F4A" d="M300,69.9c0,0,6.3-3.4,22.6-3.7l-20.8,4.3L300,69.9z"/>
		</g>
		<circle fill="#211E29" cx="285" cy="62.1" r="5.1"/>
		<path fill="#FFDE53" d="M298.9,32.9c0,0-7.7-17.6-13.5-16.5c-5.7,1.1,7.2,13.5,7.2,13.5s-12.7-13.2-14.8-9s16.7,13.2,16.7,13.2
			L298.9,32.9z"/>
		<g>
			<path fill="#7C7D8F" d="M279.8,106.9c29.3,10.7,32.6,54.9-55.8,98.4c-28.3,13.9-91.3,32.4-94.9,24.1c-4.4-10.1,16.1-29.6,50-62.1
				C213,134.7,253.7,97.4,279.8,106.9z"/>
			<path fill="#CCB34C" d="M279.8,106.9c0,0-31.6-14.8-77.1,38.3c0,0,23.6,32.3,82,7.6c10.8-4.6,17.5-16,15.3-27.5
				C298.5,117.6,293.3,110.1,279.8,106.9z"/>
		</g>
	</g>
</g>
</svg>
