<?xml version="1.0" encoding="utf-8"?>
<!-- Generator: Adobe Illustrator 23.0.1, SVG Export Plug-In . SVG Version: 6.00 Build 0)  -->
<svg version="1.1" xmlns="http://www.w3.org/2000/svg" xmlns:xlink="http://www.w3.org/1999/xlink" x="0px" y="0px"
	 viewBox="0 0 465.45 372.76" style="enable-background:new 0 0 465.45 372.76;" xml:space="preserve">
<style type="text/css">
	.st0{display:none;}
	.st1{display:inline;}
	.st2{fill:#543A17;}
	.st3{opacity:0.5;fill:#71512A;}
	.st4{opacity:0.5;fill:#543A17;}
	.st5{fill:#71512A;}
	.st6{fill:#484850;}
	.st7{fill:#32323B;}
	.st8{fill:#787885;}
	.st9{fill:#39393D;}
	.st10{fill:#3A6766;}
	.st11{fill:#39716E;}
	.st12{opacity:0.56;fill:#E3E2DE;}
	.st13{opacity:0.5;fill:#39716E;}
	.st14{fill:#2A81A4;}
	.st15{fill:#BAA554;}
	.st16{fill:#AD9549;}
	.st17{fill:#DBB446;}
	.st18{fill:#899A9C;}
	.st19{fill:#A7AA82;}
	.st20{fill:#937D33;}
	.st21{fill:#E3E2DE;}
	.st22{opacity:0.5;fill:#2B3435;}
	.st23{fill:#191513;}
	.st24{fill:#FFFFFE;}
	.st25{fill:#505057;}
	.st26{fill:#61A298;}
	.st27{fill:#9B9B70;}
	.st28{opacity:0.5;fill:#9B9B70;}
	.st29{fill:#2B3435;}
	.st30{opacity:0.5;fill:#111616;}
	.st31{fill:#414F50;}
	.st32{fill:#111616;}
	.st33{fill:#056A94;}
	.st34{opacity:0.5;fill:#3A2814;}
	.st35{fill:#96ABC0;}
	.st36{fill:#B2CDDD;}
	.st37{fill:#394495;}
	.st38{fill:#4C59A4;}
	.st39{fill:#E59D58;}
	.st40{fill:#D57533;}
	.st41{fill:#545DA5;}
	.st42{fill:#040406;}
	.st43{fill:#F8F9FD;}
	.st44{fill:#384B99;}
	.st45{fill:#6A75B3;}
	.st46{fill:#39383F;}
	.st47{fill:#242426;}
	.st48{opacity:0.6;fill:#93939E;}
	.st49{fill:#101011;}
	.st50{display:inline;fill:#543A17;}
	.st51{fill:#301812;}
	.st52{fill:#E1311F;}
	.st53{fill:#D42018;}
	.st54{fill:#E8402D;}
	.st55{fill:#D83325;}
	.st56{opacity:0.5;fill:#CD1417;}
	.st57{fill:#2D2622;}
	.st58{fill:#A8763D;}
	.st59{fill:#E2995D;}
	.st60{fill:#FCFAF8;}
	.st61{fill:#7C7D8F;}
	.st62{fill:#CCB34C;}
	.st63{fill:#857A8B;}
	.st64{fill:#EDC623;}
	.st65{fill:#5E5C71;}
	.st66{fill:#B4B0C9;}
	.st67{fill:#FFDE53;}
	.st68{fill:#BEAC60;}
	.st69{fill:#5C5966;}
	.st70{fill:#4D4E5A;}
	.st71{fill:#93939E;}
	.st72{fill:#3E3F4A;}
	.st73{fill:#211E29;}
</style>
<g id="Layer_1" class="st0">
	<g class="st1">
		<g>
			<path class="st2" d="M93.81,274.52c-0.01,0.41,0.02,0.81,0.18,1.22c6.17,15.71,18.1,18.47,31.99,20.28
				c2.65,0.36,5.35,0.69,8.13,1.05c-3.39,2.7-16.06,10.47-20.95,15.63c-2.29,2.4,3.46,11.91,9.23,15.91
				c2.62,1.83,5.23,2.52,7.11,0.87c19.35-17.17,55.69-32.07,80.63-33.81c22.43-1.55,78.98,1.55,83.16-30.64
				c1.66-12.71-6.76-26.82-9.79-40.06c-0.42-1.84-0.74-3.67-0.91-5.47c-2.27-24.19,20.2-23.39,38.11-24.2
				c10.84-0.48,21.89,0.17,32.77-0.57c5.3-0.35,10.56-1.03,15.76-2.31c12.59-3.12,21.32-12.76,29.48-21.99
				c13.6-15.41,22.4-10.04,36.54-10.86c6.5-0.38,13.25-0.81,20.88-6.09c2.35-1.63,3.08-3.23,3.07-4.34
				c0.02-0.69-0.25-1.19-0.61-1.43c-0.74-0.53-2.38-0.38-4.28,0.03c-3.03,0.66-6.78,1.99-8.77,2.33
				c-15.82,2.82-33.93-5.49-48.1,4.89c-7.84,5.75-12.63,15.4-20.74,20.69c-11.26,7.31-28.99,3.72-41.83,3.09
				c-11.93-0.58-24-1.24-35.88,0.23c-24.08,2.97-39.05,17.03-36.65,42.38c1.26,13.2,9.9,25.15,10.28,38.05
				c0.53,18.37-58.9,14.9-70.23,15.5c-10.56,0.57-21.15,1.64-31.34,4.61c-9.01,2.62-17.25,9.01-26.6,10.05
				c-5.73,0.63-12.94-0.81-18.88-0.74c-6.07,0.05-12.27-0.99-17.39-4.42c-2.93-1.97-9.43-13.46-12.62-12.21
				C94.54,272.59,93.88,273.52,93.81,274.52z M132.22,325.63c0.36-0.5,0.67-1.05,0.92-1.65
				C132.97,324.57,132.55,325.27,132.22,325.63z"/>
			<path class="st3" d="M352.61,192.46l0.84,2.27c5.3-0.35,10.56-1.03,15.76-2.31c12.59-3.12,21.32-12.76,29.48-21.99
				c13.6-15.41,22.4-10.04,36.54-10.86c6.5-0.38,13.25-0.81,20.88-6.09c2.35-1.63,3.08-3.23,3.07-4.34
				c-5.62,3.5-14.87,7.46-27.87,7.42c-23.32-0.1-25.09,0.49-38.11,13.93C380.18,183.93,373.16,186.03,352.61,192.46z"/>
			<path class="st4" d="M272.6,259.4c-0.38-12.9-9.02-24.85-10.28-38.05c-0.85-8.92,0.49-16.41,3.6-22.54
				c6.35,1.89,12.87,4.11,19.16,6.82c-2.07,3.34-3.07,7.8-2.51,13.86c1.38,14.75,12.6,31.05,10.7,45.53
				c-2.85,21.98-30.11,27.5-54.26,29.29c-23.28,1.06-26.67-16.47-53.19-16.66c-0.51-0.33-1.01-0.67-1.52-1.01
				c5.98-0.91,12.03-1.42,18.07-1.75C213.69,274.3,273.13,277.77,272.6,259.4z"/>
			<path class="st3" d="M121.1,322.94c0,0,0.5,2.34,1.28,5.67c2.62,1.83,5.23,2.52,7.11,0.87c19.35-17.17,55.69-32.07,80.63-33.81
				c22.43-1.55,78.98,1.55,83.16-30.64c1.66-12.71-6.76-26.82-9.79-40.06c-0.05,0.03-0.07,0.09-0.1,0.15
				c-7.91,15.3,12.78,30.85-1.5,48.87c-14.3,18.04-78.88,14.21-101.3,18.02C158.19,295.82,121.1,322.94,121.1,322.94z"/>
			<path class="st5" d="M113.15,312.69c-3.52,3.7-2.58,10.32,2.1,14.77c4.68,4.46,11.33,5.07,14.86,1.37
				c3.52-3.7,2.58-10.32-2.1-14.77C123.33,309.6,116.68,308.99,113.15,312.69z"/>
		</g>
		<g>
			<path class="st6" d="M270.59,247.35c0,0-18.68-19.21-20.86-22.63c-2.18-3.42-4.6-9.89-4.6-9.89c2.88,2.55,5.26,0.95,7.47-2.05
				c0,0,0.71,4.69,2.38,8.68c2.04,4.9,22.87,22.98,22.87,22.98C283.05,249,273.08,253.6,270.59,247.35z"/>
			<path class="st7" d="M245.13,214.84c2.88,2.55,5.26,0.95,7.47-2.05c0,0,0.71,4.69,2.38,8.68c0.64,1.53,3.11,4.34,6.2,7.49
				c-1.23,1.57-2.63,2.94-4.15,4.14c-3.49-3.76-6.5-7.13-7.3-8.38C247.55,221.3,245.13,214.84,245.13,214.84z"/>
			<path class="st6" d="M266.68,249.62c0.03-0.92,1.15-2.72,3.43-3.97c0.45-0.25,2.36-4.26,7.75-3.84
				c4.24,0.23,11.15-0.17,14.16,1.47c1.51,0.83,4.47,8.73,4.47,8.73c2.28,2.85-1.46,4.89-3.01,2.99c0,0-2.49-5.99-3.67-6.64
				c-1.19-0.64-6.36-0.72-6.36-0.72s5.86,2.09,7.38,3.8c1.72,1.93,4.19,6.42,4.19,6.42c2.1,3.57-1.34,5.58-2.98,3.6l-4.83-6.8
				l-5.42-3.35c-3.6-2.23-5.89-1.74-9.83-0.19l0.04,2.98l0.52,6.54C272.52,260.65,266.39,258.19,266.68,249.62z"/>
			<path class="st8" d="M296.98,254.37c-0.53-1-3.56-0.19-3.03,0.81c0,0,1.4,3.72,2.28,3.86
				C297.12,259.18,297.27,256.25,296.98,254.37z"/>
			<path class="st8" d="M294.92,259.08c-0.75-0.85-3.51,0.64-2.76,1.49c0,0,2.22,3.3,3.11,3.23
				C296.16,263.73,295.63,260.84,294.92,259.08z"/>
		</g>
		<g>
			<path class="st9" d="M180.79,179.74c0,0-98.51,42.82-109.31,33.91c-10.8-8.91,72.06-77.86,72.06-77.86L180.79,179.74z"/>
			<path class="st10" d="M93.22,194.89c0,0,32.84-65.98,107.79-93.68c0,0,62.32,2.16,33.89,42.29
				C210.61,177.77,94.49,209.55,93.22,194.89z"/>
			<path class="st11" d="M214.52,102.92c20.01,7.82,17.31,28.15,10.48,38.15c-16.03,23.5-98.22,55.54-131.29,55.12
				c6.04,8.17,65.22-5.79,106.24-26.72c-2.7,3.11-2.53,4.49,3.43,2.13c10.37-4.11,17.01-11.11,21.05-16.99
				c-3.13,6.4-3.72,9.8,2.35,4.42c16.35-14.49,15.53-34.62,15.53-34.62l0,0C241.99,111.01,226.45,105.31,214.52,102.92z"/>
			<path class="st12" d="M156.7,124.54c0,0,7.98,7.31,18.16,7.36c11.95,0.06,23.53-0.19,20.66,16.47
				c-2.87,16.66-4.46,15.35,2.45,22.08l-12.77,5.92c0,0-7.07-1.93-5.28-13.47c1.79-11.54,10.86-16.34,1.92-20.9
				c-8.95-4.56-20.91,2.92-29.56-14.28L156.7,124.54z"/>
			<path class="st13" d="M99.98,191.49c0,0,68.86-19.13,111.28-48.75C211.26,142.74,185.42,173.48,99.98,191.49z"/>
		</g>
		<path class="st10" d="M136.96,218.92L4.91,270.6c0,0,5.04-24.62,27.51-31.72l101.66-30.86L136.96,218.92z"/>
		<path class="st14" d="M142.37,220.56L34.95,274.53c0,0-15-11.38,5.61-19.78l93.45-37.93L142.37,220.56z"/>
		<path class="st15" d="M124.25,228.56c0,0,32.17,20.92,102.81,6.06c37.98-12.57,71.39-60.82,56.15-102.8l-63.49,12.73
			L124.25,228.56z"/>
		<path class="st16" d="M249.97,169.35c3.75-11.24,2.23-21.16-0.85-30.7l-29.39,5.89l-83.5,73.48"/>
		<path class="st17" d="M283.21,131.81l-30.51,6.12c0,22.63,14.22,28.51,16.9,46.33C290.36,170.36,289.21,148.36,283.21,131.81z"/>
		<path class="st18" d="M104.28,203.06c-1.84,5.39-2.56,8.87-2.56,8.87c14.58,5.42,27.4-15.87,35.6-34.7
			C123.77,182.28,112.39,191.66,104.28,203.06z"/>
		<path class="st19" d="M217.71,86.65c0,0-54.76,38.91-84.23,81.96c-8.95,13.07-6.4,19.27,6.73,10.41
			c33.37-22.49,76.97-52.71,117.14-31.11C257.35,147.91,250.39,96.48,217.71,86.65z"/>
		<path class="st20" d="M107.78,220.57c0,0,47.94-72.47,128.88-79.93c0,0,32.25,18.24,15.51,44.7
			C218.38,224.68,107.09,237.52,107.78,220.57z"/>
		<path class="st20" d="M284.44,117.94c0.9,17.59-5.63,24.4-22.92,24.33c-21.33-0.1-57.72-10.45-57.93-32.49
			c-0.2-21.49,24.58-32.5,45.92-32.5C275.18,77.28,283.26,94.89,284.44,117.94z"/>
		<path class="st21" d="M286.58,129.45c-3.86,5.9-10.88,8.42-21.7,8.36c-5.1-0.02-11-0.62-17.1-1.78
			c-22.14-4.24-46.78-16.12-44.36-36.14c2.86-23.66,24.54-37.9,48.16-37.9c28.42,0,37.38,20.54,38.68,47.44
			C290.7,118.35,289.58,124.91,286.58,129.45z"/>
		<path class="st22" d="M264.88,137.81c-5.1-0.02-11-0.62-17.1-1.78c-0.08-0.08-0.16-0.16-0.22-0.24
			c15.69,0.83,29.91-0.52,33.34-17.88h6.08C286.98,117.91,286.98,139.62,264.88,137.81z"/>
		<path class="st14" d="M263.66,95.06c-8.42-6.58-22.27,4.34-34.66-2.81c-0.05-0.03-0.1-0.06-0.15-0.09
			c-6.98-4.37-7.59-14.3-1.67-20.03c4.99-4.84,11.58-7.96,21.37-10.03c-22.41,1.17-42.38,15.16-45.11,37.8
			c-1.98,16.38,14.19,27.3,32.27,33.06c5.93,1.39-12.1-7.71-18.47-23.57c-2.46-6.11,3.69-12.27,9.7-9.56
			c0.06,0.02,0.11,0.05,0.17,0.08c11.74,5.39,21.4,12.6,29.11,13.21c7.71,0.6,26.95-3.33,26.95-3.33l1.38-4.36
			C284.52,105.41,277.48,105.86,263.66,95.06z"/>
		<g>
			<path class="st23" d="M262.99,101.86c0,3.35-2.71,6.06-6.06,6.06c-3.35,0-6.06-2.71-6.06-6.06c0-3.35,2.71-6.06,6.06-6.06
				C260.28,95.79,262.99,98.51,262.99,101.86z"/>
			<path class="st24" d="M260.52,99.82c0,1.55-1.61,0.79-3.59,0.79c-1.98,0-3.59,0.76-3.59-0.79c0-1.55,1.61-2.8,3.59-2.8
				C258.91,97.02,260.52,98.27,260.52,99.82z"/>
		</g>
		<g>
			<path class="st6" d="M204,272.92c0,0-4.01-26.49-3.79-30.54s2.01-10.72,2.01-10.72c0.86,3.75,3.73,3.84,7.27,2.69
				c0,0-2.15,4.23-3.12,8.44c-1.19,5.18,5.22,32,5.22,32C213.18,281.52,202.39,279.45,204,272.92z"/>
			<path class="st7" d="M202.22,231.66c0.86,3.75,3.73,3.84,7.27,2.69c0,0-2.15,4.23-3.12,8.44c-0.37,1.62,0,5.34,0.68,9.7
				c-1.92,0.56-3.85,0.86-5.79,0.95c-0.65-5.09-1.14-9.58-1.06-11.06C200.43,238.33,202.22,231.66,202.22,231.66z"/>
			<path class="st6" d="M194.06,271.95c0.88-0.29,6.95-1.46,9.53-1.87c0.51-0.08,1.57,0.76,6.5,2.97
				c3.92,1.65,13.46,6.06,15.74,8.62c1.15,1.29,2.96,9.39,2.96,9.39c1.19,3.46-3.02,4.11-3.84,1.81c0,0-1.98-7.25-2.88-8.25
				c-0.9-1-8.68-4.2-8.68-4.2s4.81,3.94,5.67,6.07c0.97,2.4,1.78,7.45,1.78,7.45c0.77,4.07-3.14,4.8-4.02,2.39l-2.26-8.03
				l-3.97-4.98c-2.64-3.31-6.24-7.08-10.48-6.94l-4.11-0.17l-4.26-0.47C191.73,275.75,191.82,272.7,194.06,271.95z"/>
			<path class="st8" d="M228.56,292.11c-0.53-1-3.56-0.18-3.03,0.81c0,0,1.4,3.72,2.29,3.86
				C228.7,296.92,228.85,293.99,228.56,292.11z"/>
			<path class="st8" d="M220.32,295.05c-0.42-1.05-3.52-0.58-3.1,0.47c0,0,0.97,3.86,1.84,4.09
				C219.93,299.85,220.4,296.95,220.32,295.05z"/>
		</g>
		<g>
			<path class="st25" d="M194.23,207.51c0,0-107.36,31.64-117.39,21.04c-10.02-10.6,84.51-71.28,84.51-71.28L194.23,207.51z"/>
			<path class="st26" d="M101.73,211.93c0,0,42.43-64.02,123.49-83.05c0,0,64.17,10.23,29.62,48.08
				C225.32,209.29,101.16,227.26,101.73,211.93z"/>
			<path class="st11" d="M238.97,132.38c19.69,10.65,14.29,31.33,5.95,40.8c-19.6,22.25-108.7,44.84-142.84,40.15
				c5.2,9.23,68.19,2.38,113.3-14.01c-3.19,2.87-3.19,4.32,3.27,2.64c11.25-2.92,19.02-9.31,23.95-14.87
				c-4.06,6.21-5.11,9.66,1.87,4.87c18.77-12.89,20.5-33.81,20.5-33.81l0,0C266.34,144.27,251,136.39,238.97,132.38z"/>
			<path class="st12" d="M176.4,147.33c0,0,7.32,8.58,17.84,9.94c12.35,1.6,24.36,2.82,19.26,19.68
				c-5.11,16.86-6.58,15.3-0.29,23.15l-13.97,4.49c0,0-7.06-2.9-3.73-14.6c3.33-11.7,13.33-15.51,4.66-21.37
				c-8.67-5.86-22,0.33-28.73-18.56L176.4,147.33z"/>
			<path class="st13" d="M109.16,209.29c0,0,73.67-10.95,121.33-36.14C230.49,173.15,199.82,201.62,109.16,209.29z"/>
		</g>
		<path class="st27" d="M203.66,95.84c0,0,5.1,24.14,27.54,33.04c0,0-25.1,17.89-63.7,18.45
			C128.89,147.89,203.66,95.84,203.66,95.84z"/>
		<path class="st28" d="M161.49,142.27c-1.06-0.09,36.71-0.14,58.02-16.39C219.51,125.87,206.49,146.25,161.49,142.27z"/>
		<g>
			<path class="st29" d="M307.61,112.07c0,0.16-0.02,0.32-0.04,0.46c-0.04,0.16-0.09,0.3-0.15,0.46c-0.04,0.14-0.13,0.28-0.21,0.4
				c-0.09,0.14-0.19,0.26-0.3,0.38c-0.3,0.32-0.71,0.56-1.2,0.68c0,0.02-0.02,0.02-0.02,0.02c-5.94,1.52-16.11,4.02-25.06,3.56
				c-0.95-1.36-1.81-2.78-2.32-4c0-0.02,0-0.02-0.02-0.04c-0.3-0.7-0.47-1.34-0.47-1.86v-0.16c0.02-0.34,0.15-0.74,0.37-1.22
				c0.75-1.8,2.69-4.5,4.54-6.88c0.61-0.77,1.2-1.51,1.73-2.17c0.6-0.74,1.62-1.06,2.58-0.8c5.04,1.38,13.53,4.28,19.66,9.28
				C307.31,110.71,307.61,111.39,307.61,112.07z"/>
			<path class="st30" d="M305.7,114.45c0,0.02-0.02,0.02-0.02,0.02c-5.94,1.52-16.11,4.02-25.06,3.56c-0.95-1.36-1.81-2.78-2.32-4
				C287.46,115.69,296.64,115.65,305.7,114.45z"/>
			<path class="st31" d="M280.21,103.49c0.02-0.04,0.04-0.08,0.09-0.12c-0.02,0.04-0.06,0.08-0.06,0.12H280.21z"/>
			<path class="st31" d="M307.61,112.07c0,0.16-0.02,0.32-0.04,0.46c-0.04,0.16-0.09,0.3-0.15,0.46c-0.04,0.14-0.13,0.28-0.21,0.4
				c-0.09,0.14-0.19,0.26-0.3,0.38c-7.98-3.8-15.66-8.34-24.2-9.9c0.64-0.81,1.26-1.59,1.82-2.28c0.55-0.68,1.48-0.97,2.36-0.73
				c5.02,1.37,13.61,4.27,19.8,9.32C307.31,110.71,307.61,111.39,307.61,112.07z"/>
			<path class="st32" d="M299.78,113.77c0,0-12.6,1.04-21.51,0.22c-0.3-0.7-0.47-1.34-0.47-1.86v-0.16
				c0.02-0.34,0.15-0.74,0.37-1.22C279.95,111.37,288.17,113.99,299.78,113.77z"/>
		</g>
		<path class="st33" d="M217.71,86.65"/>
		<path class="st14" d="M283.76,80.09c-8.25,4.5-34.04,1.84-34.25-2.82c-0.07-1.6,5.48-3.32,5.48-3.32s-22.99-7.05-24.71-11.86
			c-0.71-1.99,13.54-6.81,24.71-6.14c0,0-4.39-6.16-2.81-7.33C255.58,46.09,283.77,56.56,283.76,80.09z"/>
	</g>
</g>
<g id="Layer_2">
	<g>
		<g>
			<g>
				<path class="st2" d="M312.9,344.61c0,0-28.49-19.63-41.91-30.38c-24.28-19.47-56.82-20.73-81.44-39.05
					c-10.14-7.62-17.5-18.17-23.81-29.04c-4.16-7.13-7.71-18.68-16.35-20.99c-12.51-3.37-25.36,0.49-37.97-1.58
					c-13.06-2.16-21.86-12.17-27.73-23.45c-0.44-0.79-0.11-1.78,0.68-2.22c2.32-1.2,9.24,6.96,11.01,8.28
					c5.04,3.77,10.83,6.81,17.28,6.86c8.28,0.07,16.45-2.32,24.64-3.32c0.66-7.93,1.52-17.01-5.14-22.75
					c-3.5-3.01-13.58-11.11-11.29-16.98c0.36-0.93,0.87-1.65,1.34-1.38c2.13,1.22,2.91,4.86,7.58,8.77c2.74,2.3,5.82,3.45,8.63,5.38
					c8.55,5.92,7.73,17.05,9.39,26.19c16.86,2.41,24.46,13.6,32.51,27.61c9.49,16.54,21.41,29.64,39.52,36.66
					c20.68,8.02,40.24,11.59,57.73,26.22c13.9,11.65,31.47,17.19,46.53,27.28C337.41,335.04,326.24,352.94,312.9,344.61z"/>
				<path class="st4" d="M265.23,290.97c-14.18-8-29.45-11.56-45.38-17.73c-18.12-7.02-30.04-20.13-39.53-36.67
					c-4.36-7.59-8.6-14.34-14.24-19.32c-4.3,3.1-8.21,6.65-11.52,10.78c5.11,4.49,7.98,12.63,11.18,18.14
					c6.31,10.85,13.67,21.4,23.81,29.03c9.76,7.26,20.76,11.83,32,15.93C235.94,292.97,250.57,292.5,265.23,290.97z"/>
				<path class="st34" d="M161.07,227.62c-20.98-21.11-47.7,6.3-72.77-19.88c5.61,7.91,13.11,14.18,23.12,15.83
					c12.6,2.08,25.46-1.77,37.97,1.58c8.63,2.31,12.19,13.87,16.34,21c6.31,10.85,13.67,21.4,23.81,29.03
					c24.64,18.33,57.17,19.58,81.46,39.05c13.41,10.74,41.91,30.38,41.91,30.38c5.2,3.25,10.06,2.5,13.28-0.11
					c-25.62-14.1-45.36-32.58-69.53-45.13c-20.09-12.33-48.73-16.44-64.97-30.52C178.95,257.82,169.47,236.07,161.07,227.62z"/>
				<path class="st5" d="M330.01,339.07c-1.41,5.43-6.25,8.88-10.81,7.7s-7.12-6.54-5.72-11.98c1.41-5.43,6.25-8.88,10.81-7.7
					S331.41,333.64,330.01,339.07z"/>
			</g>
			<path class="st34" d="M137.3,209.73c0.66-7.93,1.52-17.01-5.14-22.75c-3.5-3.01-13.58-11.11-11.29-16.98
				c0.36-0.93,0.81-1.32,1.34-1.38c-0.56,10.5,10.59,14.41,15.89,21.2C143.39,196.59,137.3,209.73,137.3,209.73z"/>
		</g>
		<g>
			<path class="st6" d="M248.07,228.36c-1.12,0.01-4.46,0.34-7.56,0.89c-0.61,0.11-5.46-2.23-10.22,2.25
				c-3.83,3.43-12.99,12.26-14.58,16.09c-0.8,1.93,0.33,11.91,0.33,11.91c0.01,4.42,5.08,3.51,5.1,0.55c0,0-0.6-9.07,0.03-10.58
				c0.63-1.5,8.27-8.23,8.27-8.23s-3.95,6.41-4.08,9.18c-0.16,3.13,0.91,9.23,0.91,9.23c0.73,4.96,5.49,4.25,5.54,1.14l-0.6-10.08
				l2.57-7.26c1.71-4.83,4.23-6.1,9.12-7.62l4.63-1.82l4.69-2.22C252.23,231.78,250.92,228.33,248.07,228.36z"/>
			<path class="st8" d="M216.7,260.6c0.22-1.35,4-1.62,3.79-0.27c0,0-0.13,4.81-1.09,5.32C218.44,266.16,217.11,262.87,216.7,260.6z
				"/>
			<path class="st8" d="M227.28,260.7c0.06-1.37,3.79-2.06,3.73-0.69c0,0,0.41,4.79-0.49,5.41
				C229.63,266.03,227.94,262.91,227.28,260.7z"/>
		</g>
		<g>
			<path class="st2" d="M270.67,339.67c-0.05,0.42-0.12,0.86-0.18,1.29c0.12,0.16,0.22,0.33,0.35,0.49
				C270.76,340.85,270.71,340.26,270.67,339.67z"/>
			<path class="st35" d="M198.69,106.14c-6.02,6.32-34.81,47.99,0.67,103.6c0,0,18.87,32.91,73.35,32.59c0,0,14.08-0.53,26.97,5.85
				c0,0,47.92,57.87,61.26,55.28l-48.78-94.91C305.03,140,238.56,64.28,198.69,106.14z"/>
			<path class="st36" d="M182,157.41c-1.08,18.67,6.46,37.87,17.36,52.33c0,0,18.87,32.91,73.35,32.59c0,0,14.08-0.53,26.97,5.85
				c0,0,32.24,47.19,37.41,47.26c4.61,0.06-18.38-32.82-31.05-50.71C288.31,219.68,200.6,259.28,182,157.41z"/>
			<path class="st37" d="M312.16,208.54l68.45,75.25c0,0-5.85,17.54-22.86,0L312.16,208.54z"/>
			<path class="st38" d="M313.81,211.27c0,0,39.73,50.45,53.51,76.77c2.19,4.18,2.09,29.68-15.95,10.1l-64.45-95.89L313.81,211.27z"
				/>
			<path class="st37" d="M268.54,121.22c-1.62,29.1,11.52,56.96,32.87,76.12c2.31,2.08,5.45,3.01,8.51,2.47h0
				c2.3-81.84-25.11-102.34-24.69-102.79C275.49,101.05,270.39,111.94,268.54,121.22z"/>
			<path class="st39" d="M268.54,121.22c1.85-9.27,6.95-20.16,16.69-24.2c4.97-5.37,5.75-15.81,4.84-20.71
				c-24.09,14.95-53.95,9.3-83,6.86c-5.11,5.63-9.72,13.8-13.39,21.17c-9.09,18.24-10.78,60.11,19.31,77.14
				c11.27,6.38,25.99,10.91,40.46,13.97c20.71,4.38,36.46-18.1,25.53-36.22C271.98,147.62,267.68,136.71,268.54,121.22z"/>
			<path class="st40" d="M271.89,115.3c-5.02-5.6-14.8-8.64-22.02-6.47c-20.69,4.75-25.42,37.55-16.78,54.7
				c14.56,28.91,49.14,50.12,86.2,50.12C321,213.65,299.18,157.51,271.89,115.3z"/>
			<path class="st41" d="M287.54,92.69c-14.19-21.94-31.18,8.68-58.15,4.32c-16.2-2.61-23.5-8.64-22.33-13.86
				c3.06-13.38,5.84-24.84,11.88-33.4c5.64-8.04,14.16-13.5,28.44-15.62c21.38-3.14,41.7,11.58,46.4,28
				C296.04,70.05,293.86,84.29,287.54,92.69z"/>
			<g>
				<path class="st42" d="M265.68,63.59c0,3.52-2.86,6.38-6.38,6.38c-3.52,0-6.38-2.86-6.38-6.38c0-3.52,2.86-6.38,6.38-6.38
					C262.82,57.21,265.68,60.07,265.68,63.59z"/>
				<circle class="st43" cx="261.76" cy="61.82" r="2.46"/>
			</g>
		</g>
		<path class="st44" d="M240.61,35.88c0,0-18.12-6.46-21.24-1.51s14.82,4.01,14.82,4.01s-18.38,0.2-16.73,4.58
			c1.64,4.38,21.09-3.12,21.09-3.12L240.61,35.88z"/>
		<g>
			<path class="st6" d="M252.34,279.57c0,0,18.88-26.34,20.88-30.83c2-4.49,3.72-12.66,3.72-12.66c-2.99,3.57-6.12,2.08-9.31-1.1
				c0,0-0.01,5.74-1.28,10.81c-1.56,6.23-23.22,31.62-23.22,31.62C237.73,283.79,250.49,287.49,252.34,279.57z"/>
			<path class="st7" d="M276.94,236.08c-2.99,3.57-6.12,2.08-9.31-1.1c0,0-0.01,5.74-1.28,10.81c-0.49,1.95-2.93,5.76-6.07,10.08
				c1.76,1.66,3.68,3.05,5.72,4.2c3.5-5.13,6.49-9.7,7.22-11.34C275.22,244.25,276.94,236.08,276.94,236.08z"/>
			<path class="st6" d="M259.35,281.35c-0.96-0.58-3.97-2.07-6.9-3.23c-0.58-0.23-3.46-4.77-9.87-3.47
				c-5.06,0.9-19.14,3.48-21.43,6.94c-1.15,1.74-1.94,11.76-1.94,11.76c-0.83,4.34,4.32,4.41,4.91,1.51c0,0,1.14-9.02,2.04-10.38
				c0.91-1.36,10.57-2,10.57-2s-8.82,4.56-8.74,7.33c0.09,3.13,1.63,9.13,1.63,9.13c1.11,4.88,5.8,3.81,5.61,0.71l-1.38-10l5.41-3
				c4-3.2,6.81-2.95,11.77-1.67l4.27,1.11l5.31,2.45C260.61,288.53,261.78,282.83,259.35,281.35z"/>
			<path class="st8" d="M219.65,294.54c0.47-1.28,4.24-0.83,3.77,0.45c0,0-1.04,4.7-2.08,5.02
				C220.3,300.33,219.63,296.85,219.65,294.54z"/>
			<path class="st8" d="M230.71,299.9c-0.04-1.37,3.62-2.35,3.67-0.98c0,0,0.78,4.75-0.06,5.43
				C233.46,305.04,231.54,302.05,230.71,299.9z"/>
		</g>
		<path class="st44" d="M293.78,62.13l-17.9,1.46c0,0-15.88-27.56-56.94-13.84c5.64-8.04,14.16-13.5,28.44-15.62
			C268.76,30.99,289.08,45.71,293.78,62.13z"/>
		<path class="st41" d="M380.32,266.27c-0.3,0.26-0.98,0.22-1.98-0.1c-12.88-4.1-79.68-54.28-106.9-76.94
			c-51.34-42.76-40.94-75.18-24.28-85.74c0.02-0.02,0.04-0.02,0.04-0.02c4.5-2.84,9.02-3.52,13.2-2.98
			c11.36,1.4,20.38,11.64,20.38,11.64s23.56,22.2,40.52,50.96l0.02,0.02c4.74,8.06,8.96,16.62,12.02,25.36
			c5.42,15.52,3.72,17.2,3.72,17.2c0.02,0.02,0.02,0.02,0.04,0.04c1.24,1.5,39.58,47.4,43.22,58.4
			C380.68,265.19,380.7,265.95,380.32,266.27z"/>
		<path class="st45" d="M320.28,176.35c-8.12,6.36-38.04-18.28-54.5-39.3c-16.26-20.76-13.3-30.22-5.38-36.56
			c11.36,1.4,20.38,11.64,20.38,11.64s23.56,22.2,40.52,50.96l0.02,0.02C322.92,169.49,322.84,174.35,320.28,176.35z"/>
		<path class="st46" d="M380.32,266.27c0,0-0.66,0.02-1.98-0.1c-12.88-4.1-79.68-54.28-106.9-76.94
			c-51.34-42.76-40.94-75.18-24.28-85.74c0.02-0.02,0.04-0.02,0.04-0.02s-34.22,32.68,32.02,85.76
			c44.65,35.78,85.82,60.84,85.82,60.84l-27.94-44.36c1.24,1.5,39.58,47.4,43.22,58.4C380.48,265.61,380.32,266.27,380.32,266.27z"
			/>
		<g>
			<path class="st47" d="M273.35,70.75c0,0,14.13,7.25,36.95-8.52C295.25,57.36,282.45,58.83,273.35,70.75z"/>
			<path class="st46" d="M273.35,70.75c0,0,4.11-16.38,11.39-16c0,0,18.98-0.05,26.02,6.26c0.38,0.34,0.93,1.05-0.27,1.21
				C305.35,62.93,280.67,64.12,273.35,70.75z"/>
			<path class="st48" d="M311.14,61.94c0.22-0.29-0.11-0.7-0.38-0.94c-7.04-6.31-26.02-6.26-26.02-6.26
				c-2.12-0.11-3.97,1.23-5.53,3.15C288.42,57.26,298.99,58.1,311.14,61.94z"/>
			<path class="st49" d="M273.35,70.75c0,0,3.84-3.99,14.84-5.68l-13.52,6.2L273.35,70.75z"/>
		</g>
	</g>
</g>
<g id="Layer_3" class="st0">
	<path class="st50" d="M235.82,216.81c0.23,0.35,0.48,0.69,0.72,1.04c-0.33-0.6-0.65-1.21-0.98-1.84
		C235.58,216.29,235.66,216.56,235.82,216.81z"/>
	<g class="st1">
		<g>
			<g>
				<path class="st2" d="M314.16,345.34c0,0-32.9-17.77-48.57-27.76c-28.36-18.09-63.47-15.65-92.06-32.47
					c-11.78-7-20.92-17.49-28.97-28.43c-5.3-7.18-10.46-19.17-20.02-20.64c-13.83-2.16-27.19,3.48-40.98,2.72
					c-14.29-0.8-24.9-10.53-32.53-21.96c-0.56-0.8-0.32-1.9,0.48-2.46c2.36-1.56,10.74,6.4,12.8,7.61
					c5.86,3.46,12.43,6.05,19.37,5.36c8.91-0.89,17.4-4.41,26.09-6.44c-0.22-8.6-0.35-18.46-8.17-23.84
					c-4.11-2.83-15.89-10.35-14.12-16.93c0.28-1.04,0.75-1.87,1.28-1.64c2.43,1.06,3.7,4.89,9.17,8.54c3.21,2.15,6.66,3.03,9.9,4.78
					c9.88,5.36,10.29,17.42,13.14,27.04c18.4,0.63,27.86,11.76,38.15,25.87c12.13,16.67,26.46,29.35,46.73,34.78
					c23.15,6.2,44.59,7.76,65.09,21.44c16.3,10.89,35.82,14.81,53.18,23.89C339.38,332.2,329.46,352.73,314.16,345.34z"/>
				<path class="st4" d="M256.68,293.25c-16.16-6.95-32.99-8.99-50.83-13.76c-20.28-5.43-34.63-18.13-46.75-34.8
					c-5.57-7.65-10.91-14.4-17.55-19.1c-4.26,3.83-8.05,8.11-11.12,12.93c6.02,4.23,10.04,12.64,14.13,18.18
					c8.05,10.92,17.19,21.4,28.97,28.42c11.33,6.66,23.69,10.3,36.24,13.39C225.45,298.82,241.11,296.6,256.68,293.25z"/>
				<path class="st34" d="M137.38,237.32c-25-20.23-50.52,12.33-80.51-12.88c6.95,7.85,15.74,13.7,26.69,14.31
					c13.78,0.77,27.15-4.87,40.99-2.72c9.54,1.48,14.71,13.49,20,20.66c8.05,10.92,17.19,21.4,28.97,28.42
					c28.61,16.82,63.71,14.38,92.08,32.47c15.66,9.98,48.57,27.76,48.57,27.76c5.96,2.88,11.1,1.51,14.25-1.67
					c-29.18-12.16-52.54-29.72-79.98-40.39c-23.03-10.91-54.28-11.98-73.37-25.22C160.11,267.7,147.39,245.43,137.38,237.32z"/>
				<path class="st5" d="M331.89,337.39c-0.88,6-5.68,10.27-10.72,9.53c-5.04-0.74-8.42-6.2-7.54-12.2c0.88-6,5.68-10.27,10.72-9.53
					C329.4,325.93,332.77,331.39,331.89,337.39z"/>
			</g>
			<path class="st34" d="M109.75,220.87c-0.22-8.6-0.35-18.46-8.17-23.84c-4.11-2.83-15.89-10.35-14.12-16.93
				c0.28-1.04,0.71-1.51,1.28-1.64c0.63,11.35,13.06,14.25,19.54,20.92C114.77,206.04,109.75,220.87,109.75,220.87z"/>
		</g>
		<path class="st6" d="M167.08,245.25c0,0,23.29-17.2,26.22-20.46s6.65-9.73,6.65-9.73c-3.52,2.22-5.78,0.09-7.61-3.5
			c0,0-1.59,4.88-4.06,8.84c-3.04,4.87-28.43,20.49-28.43,20.49C153.5,244.82,163.32,251.48,167.08,245.25z"/>
		<path class="st7" d="M193.3,224.79c2.93-3.26,6.65-9.73,6.65-9.73c-3.52,2.22-5.78,0.09-7.61-3.5c0,0-1.59,4.88-4.06,8.84
			c-1.23,1.96-6.08,5.67-11.43,9.39c0.87,2.01,1.94,3.93,3.16,5.76C185.91,231.04,191.91,226.34,193.3,224.79z"/>
		<path class="st51" d="M203.22,122.42c-11.99,5.17,14.34,120.75,166.03,118.84c2.97-0.04,4.47-3.61,2.39-5.73
			C345.13,208.58,228.72,93.41,203.22,122.42z"/>
		<path class="st51" d="M309.11,233.29c14.05,18.61,32.42,64.64,58.12,113.81c1.28,2.45,4.47,3.15,6.65,1.46
			c6.79-5.23,17.31-18.47,0.65-44.08c-26.05-40.03-54.54-81.3-54.54-81.3L309.11,233.29z"/>
		<path class="st23" d="M330.8,219.11c18.9,25.31,68.71,74.73,89.96,113.99c1.52,2.82,0.16,6.32-2.86,7.37
			c-7.99,2.77-24.2,3.46-42.46-23.55c-29.74-44-59.7-91.04-59.7-91.04L330.8,219.11z"/>
		<path class="st52" d="M294.36,254.26c-38.58-1.38-76.24-14.76-76.24-14.76c-62.3-23.52-57.87-104.88-57.87-104.88
			c4.45-26.7-22.87-61.02-22.87-61.02V62.61c48.31-38.61,92.8-22.63,104.26,11.82c8.88,34.74,31.37,51.14,39.26,55.34
			c28.84,15.28,48.94,58.3,60.09,91.2v0.02c4.17,12.3,7.11,23.17,8.75,30.65c0.22,0.97,0.41,1.88,0.58,2.72
			C353.39,269.45,302.14,254.54,294.36,254.26z"/>
		<path class="st53" d="M243.48,101.43c5.3,15.06,14.51,24.16,28.03,32.65c36.61,23.02,69.28,68.38,78.7,119.46
			c-3.66-26.07-8.47-81.2-66.64-125.23c-17.94-13.58-24.8-14.32-41.07-55.49c-9.35-23.66-33.16-37.59-63.59-31.15
			C217.71,38.87,232.55,70.37,243.48,101.43z"/>
		<path class="st54" d="M159.89,119.62c0,0,28.56,11.94,52.49-19.35c11.76-15.37-8.09-60.17-70.46-32.07v9.56
			C141.92,77.76,156.42,104.37,159.89,119.62z"/>
		<path class="st55" d="M181.18,81.4c-3.2-12.78-22.62-23.83-39.26-13.2v9.56c0,0,2.11,10.26,11.45,23.49
			C168.35,103.52,184.83,97.84,181.18,81.4z"/>
		<path class="st54" d="M163.93,170.83c0,0,87.15-6.71,130.42,83.42C271.5,249.19,181.48,257.29,163.93,170.83z"/>
		<path class="st2" d="M114.61,73.47c-0.26,0.04-0.34,0.38-0.13,0.53c2.36,1.78,12.53,8.71,32.23,12.64
			c8.72,1.74,18.15,2.25,25.63-0.99C172.34,85.65,136.9,70.08,114.61,73.47z"/>
		<path class="st56" d="M349.74,251.64C207.67,232.21,195.7,119.2,207.93,115.52c23.15-20.86,94.27,58.41,133.05,105.44v0.02
			C345.15,233.29,348.09,244.16,349.74,251.64z"/>
		<g>
			<path class="st23" d="M210.48,112.99c-12.51,3.75,0.28,121.64,151.25,137.25c2.93,0.3,4.81-3.04,3.01-5.36
				C341.59,215.14,239.18,87.1,210.48,112.99z"/>
			<path class="st57" d="M305.77,193.28c5.24,0,10.48-0.28,15.67-0.88c-22.62-25.83-49.49-53.88-71.92-69.81
				c-11.73-8.33-26.37,5.72-18.66,17.87C246.16,164.54,272.41,193.28,305.77,193.28z"/>
		</g>
		<path class="st58" d="M113.22,72.22c-0.48,0.5-0.16,1.34,0.54,1.38c11.33,0.55,55.91,8.54,58.58,12.06
			c15.89-8.41-43.23-11.23-30.04-24.16C142.29,61.5,120.84,64.35,113.22,72.22z"/>
		<path class="st59" d="M142.29,61.5c0,0-21.45,2.86-29.08,10.72c-0.4,0.41-0.23,1.03,0.23,1.26c8.53-3.92,17.99-5.87,27.43-6.57
			C139.94,65.32,140.22,63.53,142.29,61.5z"/>
		<circle class="st23" cx="172.34" cy="65.2" r="7.63"/>
		<path class="st60" d="M172.34,62.69c0,1.38-1.12,2.51-2.51,2.51c-1.38,0-2.51-1.12-2.51-2.51c0-1.38,1.12-2.51,2.51-2.51
			C171.22,60.19,172.34,61.31,172.34,62.69z"/>
		<path class="st52" d="M174.55,43.3c0,0,11.62-11.44,15.79-8.74c4.16,2.69-9.96,8.37-9.96,8.37s14.19-6.41,14.49-2.45
			c0.3,3.95-17.33,5.13-17.33,5.13L174.55,43.3z"/>
		<path class="st52" d="M326.55,255.2c0,0,16.3,0.56,17.21,5.44c0.91,4.87-12.93-1.46-12.93-1.46s14.42,5.89,11.75,8.83
			c-2.66,2.94-15.65-9.04-15.65-9.04L326.55,255.2z"/>
		<g>
			<path class="st6" d="M228.33,279.8c0,0,11.78-26.45,12.72-30.73c0.94-4.28,0.98-11.74,0.98-11.74c-1.97,3.66-4.98,2.93-8.35,0.71
				c0,0,1.03,5.03,0.83,9.69c-0.25,5.73-14.62,31.84-14.62,31.84C216.31,286.12,228.14,287.07,228.33,279.8z"/>
			<path class="st7" d="M242.04,237.32c-1.97,3.66-4.98,2.93-8.35,0.71c0,0,1.03,5.03,0.83,9.69c-0.08,1.79-1.53,5.57-3.49,9.91
				c1.84,1.13,3.77,2.01,5.76,2.65c2.14-5.12,3.93-9.65,4.28-11.22C241.99,244.78,242.04,237.32,242.04,237.32z"/>
			<path class="st6" d="M237.28,282.96c-0.83-0.56-3.45-2.01-6.02-3.17c-0.51-0.23-3.53-2.49-9.3-1.6
				c-4.55,0.59-15.76,2.45-18.87,4.47c-1.57,1.01-5.78,8.94-5.78,8.94c-2.23,3.26,1.96,5.15,3.48,2.98c0,0,4.15-6.98,5.38-7.77
				c1.23-0.79,10.25-1.88,10.25-1.88s-7.97,3.65-8.19,6.12c-0.26,2.78,0.47,8.27,0.47,8.27c0.47,4.45,4.74,4,4.9,1.22l-0.16-9.02
				l5.06-2.77c3.7-2.69,6.84-4.26,11.21-2.91l4.04,0.15l4.58,1.07C238.33,287.06,239.4,284.38,237.28,282.96z"/>
			<path class="st8" d="M197.24,292.74c0.84-0.88,3.77,0.83,2.92,1.72c0,0-2.53,3.48-3.49,3.37
				C195.71,297.71,196.39,294.62,197.24,292.74z"/>
			<path class="st8" d="M209.56,300.3c0.11-1.22,3.46-1.7,3.36-0.48c0,0,0.19,4.29-0.63,4.81S210.07,302.3,209.56,300.3z"/>
		</g>
		<g>
			<path class="st6" d="M171.8,253.76c-0.45-0.89-2.01-3.45-3.67-5.73c-0.33-0.45-0.35-5.25-5.8-7.33
				c-4.25-1.73-14.92-5.64-18.62-5.42c-1.86,0.11-9.44,4.92-9.44,4.92c-3.55,1.74-0.83,5.45,1.56,4.31c0,0,7.05-4.03,8.51-4.11
				c1.46-0.08,9.85,3.42,9.85,3.42s-6.69-0.66-8.97,0.31c-2.57,1.1-7.05,4.34-7.05,4.34c-3.7,2.52-1.27,6.07,1.25,4.9l7.86-4.42
				l6.84-0.77c4.55-0.51,6.56,1.01,9.69,4.35l3.27,3.01l3.61,2.9C170.68,258.44,172.94,256.04,171.8,253.76z"/>
			<path class="st8" d="M133.65,241.17c1.17-0.35,2.87,2.58,1.7,2.93c0,0-3.91,1.78-4.7,1.21
				C129.86,244.74,131.98,242.39,133.65,241.17z"/>
			<path class="st8" d="M137.7,249.71c1.12-0.48,3.14,2.24,2.01,2.73c0,0-3.69,2.2-4.53,1.72
				C134.33,253.68,136.18,251.11,137.7,249.71z"/>
		</g>
	</g>
</g>
<g id="Layer_4" class="st0">
	<g class="st1">
		<g>
			<path class="st2" d="M370.31,314.86c-2.66-1.86-11.2,7.28-14.34,8.44c-5.48,2.02-11.42,1.6-17,0.2
				c-5.46-1.38-12.42-1.66-17.56-3.52c-8.38-3.04-14.54-10.76-22.26-15.18c-8.72-5-18.24-8.34-27.84-11.22
				c-10.3-3.08-65.82-13.12-61.24-29.92c3.22-11.8,13.84-20.88,17.94-32.76c7.86-22.82-2.8-39.1-24.32-47.2
				c-10.62-4-21.88-6.08-33-8.2c-11.96-2.28-29.1-2.92-37.84-12.16c-6.3-6.68-8.56-16.64-14.5-23.68
				c-10.74-12.72-29.28-9.1-43.22-15.22c-1.76-0.76-4.92-2.82-7.56-4.1c-1.66-0.8-3.14-1.3-3.94-0.98
				c-0.38,0.14-0.74,0.54-0.88,1.18c-0.26,1.02,0.06,2.66,1.86,4.68c5.86,6.56,11.98,8.46,17.88,10.26
				c12.84,3.9,22.14,0.92,31.24,18.14c5.46,10.32,11.36,21.14,22.26,26.82c4.5,2.34,9.2,4.14,14,5.64
				c9.86,3.1,20.18,4.96,30.06,7.82c16.32,4.74,37.2,9,29.72,30.78c-0.56,1.62-1.26,3.24-2.06,4.84
				c-5.74,11.52-16.64,22.64-17.94,34.72c-3.32,30.58,49.46,40.32,69.78,46.74c22.58,7.16,52.74,28.98,66.74,49.1
				c1.36,1.94,3.92,1.88,6.74,0.78c6.2-2.4,13.62-9.88,12.04-12.6c-3.36-5.84-13.3-15.82-15.82-19.06c2.64,0.28,5.2,0.58,7.72,0.84
				c13.2,1.42,24.8,1.54,33.98-11.56c0.24-0.34,0.36-0.7,0.44-1.08C371.55,316.46,371.15,315.46,370.31,314.86z M324.15,354.2
				c0.1,0.6,0.26,1.18,0.48,1.72C324.41,355.52,324.17,354.78,324.15,354.2z"/>
			<path class="st3" d="M151.27,184.18l-1.28,1.9c-4.8-1.5-9.5-3.3-14-5.64c-10.9-5.68-16.8-16.5-22.26-26.82
				c-9.1-17.22-18.4-14.24-31.24-18.14c-5.9-1.8-12.02-3.7-17.88-10.26c-1.8-2.02-2.12-3.66-1.86-4.68
				c4.4,4.48,12.04,10.18,24.02,13.04c21.5,5.1,23,6.04,32,21.32S133.77,173.68,151.27,184.18z"/>
			<path class="st4" d="M210.07,263.66c3.22-11.8,13.84-20.88,17.94-32.76c2.77-8.03,3.2-15.23,1.7-21.56
				c-6.27,0.33-12.77,0.92-19.17,2.02c1.17,3.54,1.09,7.87-0.78,13.32c-4.56,13.28-18.52,25.8-20,39.56
				c-2.27,20.88,21.61,32.04,43.46,39.07c21.21,6.16,28.23-9.23,52.7-3.5c0.54-0.19,1.08-0.4,1.63-0.59
				c-5.3-2.17-10.76-3.98-16.25-5.63C261.01,290.5,205.49,280.46,210.07,263.66z"/>
			<path class="st3" d="M335.47,355.92c0,0-0.98,2.04-2.44,4.94c-2.82,1.1-5.38,1.16-6.74-0.78c-14-20.12-44.16-41.94-66.74-49.1
				c-20.32-6.42-73.1-16.16-69.78-46.74c1.3-12.08,12.2-23.2,17.94-34.72c0.04,0.04,0.04,0.1,0.06,0.16
				c3.88,15.86-18.64,25.57-9.5,45.35c9.16,19.8,69.5,30.65,89.3,39.15C307.35,322.68,335.47,355.92,335.47,355.92z"/>
			<path class="st5" d="M345.07,348.25c2.42,4.19,0.08,10.08-5.22,13.14c-5.31,3.06-11.57,2.15-13.99-2.05
				c-2.42-4.19-0.08-10.08,5.22-13.14C336.39,343.14,342.65,344.06,345.07,348.25z"/>
		</g>
		<g>
			<path class="st6" d="M209.65,276.06c0,0-1.36-29.33-0.78-33.34c0.58-4.02,2.97-10.49,2.97-10.49c0.52,3.81,3.36,4.16,7,3.33
				c0,0-2.52,4.02-3.87,8.13c-1.65,5.05,2.31,32.34,2.31,32.34C218.25,282.86,210.83,286.59,209.65,276.06z"/>
			<path class="st7" d="M211.84,232.23c0.51,3.81,3.36,4.16,7,3.33c0,0-2.52,4.02-3.87,8.13c-0.52,1.58-0.49,5.32-0.2,9.72
				c-1.96,0.38-3.91,0.51-5.85,0.42c-0.19-5.13-0.27-9.64-0.05-11.11C209.45,238.7,211.84,232.23,211.84,232.23z"/>
			<path class="st6" d="M202.51,286.59c0.42-0.82,2.49-2.73,4.43-4.47c0.38-0.34,1.33-4.68,6.67-5.5c4.18-0.74,13.69,0.18,17,1.1
				c1.66,0.46,8.49,3.89,8.49,3.89c2.87,2.26-0.31,5.09-2.24,3.6c0,0-5.95-3.09-7.25-3.45c-1.3-0.36-9.22-0.73-9.22-0.73
				s6.18,0.7,8.05,2.02c2.11,1.49,5.54,5.29,5.54,5.29c2.85,3-0.03,5.74-2.08,4.19l-6.25-5.52l-6.04-2.03
				c-4.01-1.35-6.13-0.35-9.61,2.05l-3.54,2.09l0.26,2.73C206.71,291.85,199.87,291.74,202.51,286.59z"/>
			<path class="st8" d="M239.48,282.6c-0.99-0.55-3.09,1.78-2.11,2.33c0,0,3.19,2.37,4.02,2
				C242.21,286.56,240.74,284.02,239.48,282.6z"/>
			<path class="st8" d="M234.15,289.54c-0.92-0.65-3.27,1.42-2.35,2.08c0,0,2.91,2.71,3.77,2.44
				C236.43,293.78,235.25,291.09,234.15,289.54z"/>
		</g>
		<g>
			<path class="st61" d="M216.74,79.82c27.38,1.23,41.79,37.46-20.95,97.28c-20.11,19.17-68.07,51.25-73.29,45.23
				c-6.38-7.36,5.73-29.07,25.58-65.3C167.98,120.71,192.27,78.72,216.74,79.82z"/>
			<path class="st62" d="M216.74,79.82c0,0-30.41-4.09-54.66,52.47c0,0,28.29,20.93,70.85-15.22c7.87-6.69,10.45-18.04,5.56-27.14
				C235.24,83.87,228.9,78.94,216.74,79.82z"/>
		</g>
		<path class="st6" d="M194.17,242.76c0,0-5.28-9.42,8.59-10.01v-5.73c0,0-15.06-0.31-14.19,12.46
			C189.29,244.73,195.25,247.63,194.17,242.76z"/>
		<path class="st63" d="M86.07,279.2c12.79-14.95,46.67-51.64,90.34-76.21c-19.66-17.94-110.56,41.86-102.99,73.15
			C74.82,281.94,82.19,283.73,86.07,279.2z"/>
		<path class="st64" d="M190.14,231.31c0,0,11.59,8.34,17.77,14.18c2.61,2.47,6.61,2.72,9.55,0.64c8.51-6.03,23.73-16.82,26.48-18.9
			L190.14,231.31z"/>
		<path class="st65" d="M95.76,290.46c10.92-16.36,40.21-56.81,80.65-86.39c-21.65-15.48-104.8,54.69-93.58,84.86
			C84.91,294.52,92.45,295.42,95.76,290.46z"/>
		<path class="st66" d="M116.8,298.6c9.46-17.25,35.12-60.1,72.83-93.08c-22.91-13.54-99.65,63.6-85.84,92.68
			C106.34,303.59,113.93,303.83,116.8,298.6z"/>
		<path class="st67" d="M276.15,212.7c-14.34,10.96-29.16,17.44-43.4,20.78c-13.9,3.3-27.24,3.62-39.04,2.2
			c-4.68-0.56-9.12-1.38-13.26-2.4c-14.32-3.5-24.98-9.28-29.4-14.04c-11.48-12.34-3.94-61.94,41.24-110.62
			c10.6-21.74,32.2-34.7,55.06-35.28c8.32-0.22,16.8,1.22,24.98,4.46c3.88,1.54,7.64,3.08,11.06,4.48
			c4.48,1.84,8.46,3.52,11.56,4.84c4.88,2.08,9.16,5.62,11.44,10.4C322.97,132.3,318.55,180.3,276.15,212.7z"/>
		<path class="st64" d="M276.15,212.7c-14.34,10.96-29.16,17.44-43.4,20.78c-13.9,3.3-27.24,3.62-39.04,2.2
			c-4.68-0.56-9.12-1.38-13.26-2.4c17.74,2.92,49.4,2.16,83.06-27.14c51.24-44.6,12.64-108.9,12.64-108.9
			c1.16-5.16,3.7-10.62,7.24-14.96c4.48,1.84,8.46,3.52,11.56,4.84c4.88,2.08,9.16,5.62,11.44,10.4
			C322.97,132.3,318.55,180.3,276.15,212.7z"/>
		<path class="st68" d="M199.74,122.65c42.52,18.65,105.45-27.7,102.3-32.46c0,0-27.52-12.13-51.18-20.48
			c-18.16-6.41-38.27,1.19-47.65,18.01C201.57,90.66,189.47,118.14,199.74,122.65z"/>
		<path class="st67" d="M318.49,69.58c-0.16,4.08-0.84,8.58-2.18,13.46c-2.42,8.82-8.06,16.5-15.92,21.16
			c-1.52,0.92-2.86,1.56-3.72,1.7c-6.48,0.98-15.26,1.72-25.72,0.22c-12.42-1.8-27.22-6.76-43.4-18.22
			c-27.8-22.56,26.74-79.26,69.84-55.96C297.39,31.94,319.67,41.84,318.49,69.58z"/>
		<path class="st64" d="M318.49,69.58c-0.16,4.08-0.84,8.58-2.18,13.46c-2.42,8.82-8.06,16.5-15.92,21.16
			c-1.52,0.92-2.86,1.56-3.72,1.7c-6.48,0.98-15.26,1.72-25.72,0.22c-1.08-0.74-1.7-1.1-1.7-1.1c-55.83-20.8-7.31-58.71,11.49-58.72
			c30.22-0.02,32.93,17.18,32.93,17.18S315.51,65.66,318.49,69.58z"/>
		<g>
			<path class="st69" d="M299.99,69.91c0,0,19.08,9.06,55.2-3.55C334.31,59.54,315.47,59.3,299.99,69.91z"/>
			<path class="st70" d="M299.99,69.91c0,0,9.14-15.69,19.61-14.35c0,0,27.52,2.47,36.5,9.65c0.48,0.39,1.14,1.16-0.63,1.17
				C347.88,66.4,311.88,64.32,299.99,69.91z"/>
			<path class="st71" d="M356.46,66.19c0.38-0.25-0.02-0.71-0.36-0.98c-8.98-7.18-36.5-9.65-36.5-9.65
				c-3.06-0.39-5.99,0.69-8.62,2.39C324.43,58.54,339.59,60.78,356.46,66.19z"/>
			<path class="st72" d="M299.99,69.91c0,0,6.34-3.45,22.61-3.66l-20.8,4.35L299.99,69.91z"/>
		</g>
		<circle class="st73" cx="285.04" cy="62.12" r="5.13"/>
		<path class="st67" d="M298.85,32.85c0,0-7.72-17.62-13.47-16.5c-5.74,1.13,7.24,13.54,7.24,13.54s-12.74-13.24-14.8-9.04
			c-2.06,4.2,16.73,13.21,16.73,13.21L298.85,32.85z"/>
		<g>
			<path class="st61" d="M279.82,106.91c29.28,10.66,32.57,54.85-55.84,98.37c-28.33,13.95-91.27,32.41-94.88,24.1
				c-4.41-10.15,16.11-29.57,49.97-62.11C213.02,134.66,253.66,97.39,279.82,106.91z"/>
			<path class="st62" d="M279.82,106.91c0,0-31.59-14.79-77.14,38.3c0,0,23.55,32.32,82.02,7.61c10.81-4.57,17.48-16.01,15.27-27.54
				C298.5,117.61,293.31,110.1,279.82,106.91z"/>
		</g>
	</g>
</g>
</svg>
